<!-- Generator: Adobe Illustrator 22.0.0, SVG Export Plug-In  -->
<svg version="1.1"
	 xmlns="http://www.w3.org/2000/svg" xmlns:xlink="http://www.w3.org/1999/xlink" xmlns:a="http://ns.adobe.com/AdobeSVGViewerExtensions/3.0/"
	 x="0px" y="0px" width="373px" height="370px" viewBox="0 0 373 370" style="enable-background:new 0 0 373 370;"
	 xml:space="preserve">
<style type="text/css">
	.st0{fill:#0D0D0D;}
	.st1{clip-path:url(#SVGID_2_);fill:#0D0D0D;}
	.st2{clip-path:url(#SVGID_4_);fill:#0D0D0D;}
</style>
<defs>
</defs>
<g>
	<path class="st0" d="M223.7,337.6c-3.1,0.8-6.2,1.4-9.3,2c-8.1,1.5-13.5,9.3-12,17.4c0.7,4,3,7.3,6.1,9.5c3.2,2.2,7.2,3.2,11.3,2.5
		c3.7-0.7,7.4-1.5,11.1-2.4c8-2,12.9-10.1,10.9-18.1C239.8,340.5,231.7,335.6,223.7,337.6L223.7,337.6z M223.7,337.6"/>
	<path class="st0" d="M334.3,137.1c1,3.2,3.1,5.7,5.6,7.5c3.7,2.6,8.6,3.5,13.3,2c7.8-2.6,12.1-11.1,9.5-18.9
		c-1.2-3.6-2.5-7.2-3.9-10.6c-3.1-7.7-11.8-11.4-19.4-8.3c-7.7,3.1-11.4,11.8-8.3,19.4C332.2,131.1,333.3,134.1,334.3,137.1
		L334.3,137.1z M334.3,137.1"/>
	<path class="st0" d="M272.3,316.3c-2.6,1.7-5.4,3.4-8.1,5c-7.2,4.1-9.6,13.3-5.5,20.4c1.1,1.9,2.6,3.5,4.3,4.8
		c4.6,3.2,10.9,3.7,16.1,0.7c3.3-1.9,6.5-3.9,9.6-6c6.9-4.6,8.8-13.8,4.2-20.7C288.5,313.6,279.2,311.7,272.3,316.3L272.3,316.3z
		 M272.3,316.3"/>
	<path class="st0" d="M372,178.9c-0.3-8.3-7.3-14.7-15.5-14.4c-8.3,0.3-14.7,7.3-14.4,15.5c0.1,3.2,0.2,6.4,0.1,9.5
		c-0.1,5.2,2.4,9.8,6.4,12.6c2.3,1.7,5.2,2.7,8.3,2.7c8.3,0.2,15.1-6.4,15.3-14.6C372.2,186.5,372.2,182.6,372,178.9L372,178.9z
		 M372,178.9"/>
	<path class="st0" d="M331.9,276.9c-6.6-5-16-3.6-20.9,3c-1.9,2.5-3.9,5-5.9,7.4c-5.4,6.3-4.6,15.7,1.7,21.1
		c0.4,0.3,0.7,0.6,1.1,0.8c6.3,4.4,14.9,3.4,20-2.5c2.4-2.9,4.8-5.9,7.1-8.9C339.8,291.2,338.5,281.9,331.9,276.9L331.9,276.9z
		 M331.9,276.9"/>
	<g>
		<defs>
			<rect id="SVGID_1_" x="0" y="0" width="373" height="370"/>
		</defs>
		<clipPath id="SVGID_2_">
			<use xlink:href="#SVGID_1_"  style="overflow:visible;"/>
		</clipPath>
		<path class="st1" d="M353.9,222.8c-7.9-2.5-16.3,1.9-18.8,9.8c-0.9,3-2,6-3.1,9c-2.5,6.5-0.1,13.7,5.4,17.6c1,0.7,2.1,1.3,3.3,1.7
			c7.7,2.9,16.4-0.9,19.3-8.6c1.3-3.5,2.6-7.1,3.7-10.7C366.1,233.7,361.7,225.3,353.9,222.8L353.9,222.8z M353.9,222.8"/>
		<path class="st1" d="M158.4,339.8c-13.4-2.4-26.2-6.5-38.4-12.2c-0.1-0.1-0.3-0.2-0.4-0.2c-2.9-1.4-5.7-2.8-8.5-4.3c0,0,0,0,0,0
			c-5.1-2.8-10.1-5.9-14.9-9.3C25.8,264.1,8.9,166.5,58.4,96.2C69.2,80.9,82.3,68.1,96.8,58c0.2-0.1,0.4-0.2,0.5-0.4
			c51.3-35.3,120.8-37.7,175.3-1.4l-11.7,16.9c-3.2,4.7-1.3,8.1,4.4,7.6l50.8-4.5c5.7-0.5,9.1-5.4,7.6-10.9l-13.6-49.1
			c-1.5-5.5-5.4-6.2-8.7-1.5l-11.7,16.9c-39.9-26.8-87.8-37-135.4-28.8c-4.8,0.8-9.5,1.8-14.2,3c0,0-0.1,0-0.1,0
			c-0.2,0-0.4,0.1-0.5,0.1c-41,10.5-76.8,34.4-102.3,68.6c-0.2,0.3-0.4,0.5-0.6,0.8c-0.8,1.1-1.7,2.3-2.5,3.5
			c-1.3,1.9-2.7,3.9-3.9,5.8c-0.2,0.2-0.3,0.5-0.4,0.7C8.6,118-1.6,155.7,0.2,194.2c0,0.1,0,0.3,0,0.4c0.2,3.8,0.5,7.6,0.9,11.3
			c0,0.2,0.1,0.5,0.1,0.7c0.4,3.8,0.9,7.5,1.6,11.3C9.5,256.4,27.6,291,54.8,318c0.1,0.1,0.1,0.1,0.2,0.2c0,0,0,0,0.1,0.1
			c7.3,7.2,15.3,13.9,23.8,19.9c22.4,15.8,47.4,26.2,74.2,31c8.1,1.5,15.9-4,17.4-12.1C171.9,349,166.5,341.2,158.4,339.8
			L158.4,339.8z M158.4,339.8"/>
	</g>
	<path class="st0" d="M176.9,65.2c-6.7,0-12.1,5.4-12.1,12.1v120.6l110.3,57c1.8,0.9,3.7,1.4,5.5,1.4c4.4,0,8.6-2.4,10.8-6.6
		c3.1-5.9,0.7-13.2-5.2-16.3L189,183.2V77.3C189,70.6,183.6,65.2,176.9,65.2L176.9,65.2z M176.9,65.2"/>
</g>
</svg>
