<!-- Generator: Adobe Illustrator 22.0.0, SVG Export Plug-In  -->
<svg version="1.1"
	 xmlns="http://www.w3.org/2000/svg" xmlns:xlink="http://www.w3.org/1999/xlink" xmlns:a="http://ns.adobe.com/AdobeSVGViewerExtensions/3.0/"
	 x="0px" y="0px" width="485.7px" height="512px" viewBox="0 0 485.7 512" style="enable-background:new 0 0 485.7 512;"
	 xml:space="preserve">
<defs>
</defs>
<path d="M484.4,151c-15.4-23.2-34.2-35.9-54.5-36.5c-14.5-0.5-27.3,5.3-38,13.3c1.6-13.4,0.2-27.3-7.5-39.6
	C373.6,71,353.3,61,325.4,59.3c-3.5-0.2-6.8,1.9-8.1,5.2c-1.3,3.3-0.3,7,2.4,9.3c0.2,0.2,16.2,13.6,31,41.3
	c-11.1-7.7-23.6-12.5-37-14.1c-24.5-2.9-49.7,6.1-64.4,22.7c-2.1,2.3-2.6,5.6-1.4,8.5s3.9,4.8,7,5c0.4,0,29.6,1.9,64.6,9.8
	c-0.6,0.3-1.1,0.5-1.7,0.8c-17.4,8.6-29.2,25.6-35.1,50.6c-0.7,3.1,0.4,6.4,2.9,8.3c1.5,1.1,3.2,1.7,5,1.7c1.3,0,2.6-0.3,3.8-0.9
	l38.9-20.3c-19.8,26.9-46.2,72.5-63.1,140.8c-1.1,4.4,1.6,8.8,6,9.9c0.7,0.2,1.3,0.2,2,0.2c3.7,0,7-2.5,7.9-6.2
	c14.7-59.3,37-100.4,53-124.4c12.9-19.2,23.9-30.9,28.9-35.7l0.5,12.4c-4.9,5.4-20.6,24.4-37,59.8c-17.1,37.2-38.2,100.7-42.3,192.8
	c-6.3-0.6-12.7-1-19.1-1.3C264,319,231.4,238.9,204.9,191.9c-10.7-19-21.2-34.2-30.4-45.9l51.2,26.7c1.2,0.6,2.5,0.9,3.8,0.9
	c1.8,0,3.5-0.6,5-1.7c2.5-2,3.7-5.2,2.9-8.3c-6.9-29.1-20.6-48.9-40.8-58.9c-2.1-1-4.2-1.9-6.3-2.7c43.6-10.3,80.8-12.7,81.3-12.7
	c3.1-0.2,5.8-2.1,7-5c1.2-2.9,0.7-6.2-1.4-8.5c-17-19.4-46.4-29.7-75-26.4c-17.7,2.1-34.1,9-48.3,20.2c18.4-36.8,39.7-54.8,40-55.1
	c2.7-2.2,3.7-6,2.4-9.3c-1.3-3.3-4.6-5.4-8.1-5.2C156,2,132.3,13.6,119.8,33.6c-9.5,15.3-10.7,32.9-8.1,49.6
	c-13.1-10.6-29-18.3-47-17.8C41.2,66.1,19.3,80.9,1.3,108c-1.9,2.9-1.8,6.8,0.4,9.6c2.2,2.8,5.9,3.8,9.2,2.6
	c0.4-0.1,26.7-9.6,67.7-7.1c-16.8,6.7-31,17.4-41.6,31.7c-17.1,23-22.9,53.7-14.6,78.1c1,2.9,3.6,5.1,6.7,5.5c0.4,0,0.7,0.1,1.1,0.1
	c2.7,0,5.3-1.4,6.8-3.7c0.3-0.4,20.9-31.4,51.7-64.1c-0.4,2.2-0.7,4.5-0.8,6.8c-1.5,22.5,8.8,44.3,30.6,64.8
	c1.5,1.5,3.6,2.2,5.6,2.2c1,0,2.1-0.2,3.1-0.6c3-1.2,4.9-4,5.1-7.2l2.6-59.2c24.2,30.8,76.8,114.5,84.5,268
	c-36.1,1.9-70.3,7.6-100.2,16.8c-37,11.4-64.7,27.5-80.2,46.3c-2,2.4-2.4,5.8-1.1,8.7c1.3,2.9,4.2,4.7,7.4,4.7h400
	c3.2,0,6-1.8,7.4-4.7c1.3-2.9,0.9-6.2-1.1-8.7c-16.9-20.6-49.2-38.1-91.1-49.5c-4.3-1.2-8.8,1.4-10,5.7c-1.2,4.3,1.4,8.8,5.7,10
	c28.7,7.8,52.3,18.5,68.6,30.8H65.6c14.3-10.8,34.3-20.4,58.2-27.8c35.4-11,77.4-16.8,121.3-16.8c26.6,0,52.4,2.1,76.9,6.3
	c4.4,0.8,8.7-2.2,9.4-6.7s-2.2-8.7-6.7-9.4c-6.3-1.1-12.7-2-19.1-2.8c3.8-89.5,24-150.8,40.4-186.8c8.6-18.9,17.1-32.9,23.7-42.4
	l1.8,42.6c0.1,3.2,2.1,6,5.1,7.2c1,0.4,2,0.6,3.1,0.6c2,0,4.1-0.8,5.6-2.2c18.7-17.6,27.5-36.3,26.2-55.7c0-0.6-0.1-1.2-0.2-1.9
	c24.4,26.3,40.6,50.7,40.8,51c1.5,2.3,4.1,3.7,6.8,3.7c0.3,0,0.7,0,1.1-0.1c3.1-0.4,5.7-2.5,6.7-5.5c7.1-21,2.2-47.3-12.5-67.1
	c-8.1-10.8-18.5-19.2-30.7-25c9.4-0.3,17.6,0.1,24.2,0.8c16.9,1.7,27,5.4,27.1,5.4c3.3,1.2,7,0.2,9.2-2.6
	C486.1,157.8,486.3,154,484.4,151z M215.6,149l-64.9-33.8c11.1-1.9,25.6-2.3,38.7,4.1C200.7,124.9,209.5,134.8,215.6,149z
	 M204.3,65.6c3-0.3,5.9-0.5,8.9-0.5c13.5,0,26.7,3.5,37.6,9.8c-22.9,2.6-62.2,8.7-101,21.7C164.5,78.8,183.3,68,204.3,65.6z
	 M133.7,42.2c6.6-10.5,17.7-18.1,32.8-22.3c-11.4,13.9-26.2,35.9-37.6,66.6C125,68.7,126.6,53.6,133.7,42.2z M64.8,96.2
	c-13.9,0-25.8,1.2-35.2,2.8c11.2-11,23.3-16.9,35.7-17.3c13.5-0.4,27.3,5.7,40.8,18C90.9,97.2,77,96.2,64.8,96.2z M35,199.4
	c-0.1-15.3,5.3-31.6,15.2-44.9c12.6-16.9,31.4-27.8,54.1-31.7C73.6,149.9,48.7,180.9,35,199.4z M116.8,206.1
	c-9.2-12.4-13.4-24.9-12.6-37.4c0.9-14.5,8.5-26.9,15.8-35.6L116.8,206.1z M235.5,434.9c-5.3-106.3-31.8-179.4-53.4-222.4
	c-20.3-40.4-39.9-62.3-46.3-68.8l0.7-15.4c10,8.6,32.9,33.6,54.7,72.5c25.3,45.2,56.4,122.1,62.7,234.1c-2.9,0-5.9-0.1-8.8-0.1
	C241.9,434.8,238.7,434.9,235.5,434.9z M370.5,96.8c5.2,8.4,6.8,19.4,4.7,32.2c-8.6-21.7-19.1-38-27.8-49.2
	C356.6,83,365.1,88.2,370.5,96.8z M311.9,117.2c16,1.9,30.4,9.6,42.2,22.2c-29.3-9.3-58.3-14.1-77.1-16.4
	C287.2,117.9,299.6,115.7,311.9,117.2z M325,162.5c6.7-3.3,13.8-4.4,20.5-4.4c2.6,0,5.2,0.2,7.6,0.5l-47.9,25
	C310.1,173.6,316.7,166.6,325,162.5z M387,230.7l-2.3-54.1c5.1,6.9,9.9,15.9,10.6,26.3C395.8,212.2,393.1,221.5,387,230.7z
	 M441.1,191.7c7.4,9.9,11.7,21.7,12.4,33.2c-11.4-15.1-30.1-37.9-52.8-58.6C417.5,170.2,431.5,178.8,441.1,191.7z M399.1,142.8
	c9.7-7.9,19.6-12,29.2-12c0.4,0,0.7,0,1.1,0c10.2,0.3,19,5.1,26.3,11.5C441.6,140.3,422.2,139.4,399.1,142.8z"/>
</svg>
