<!-- Generator: Adobe Illustrator 22.0.0, SVG Export Plug-In  -->
<svg version="1.1"
	 xmlns="http://www.w3.org/2000/svg" xmlns:xlink="http://www.w3.org/1999/xlink" xmlns:a="http://ns.adobe.com/AdobeSVGViewerExtensions/3.0/"
	 x="0px" y="0px" width="414.2px" height="512px" viewBox="0 0 414.2 512" style="enable-background:new 0 0 414.2 512;"
	 xml:space="preserve">
<defs>
</defs>
<path d="M207.1,512c-5.2,0-10.2-2.3-13.6-6.3L43.1,329.1c-13.5-15.7-23.6-32.4-30-49.5C-10.7,216.6-1.7,145.3,37.2,89
	c39.1-56.6,101-89,169.9-89S338,32.5,377.1,89c38.9,56.3,47.9,127.5,24,190.6c-6.3,17.1-16.4,33.7-30,49.5L220.7,505.7
	C217.3,509.7,212.4,512,207.1,512z M207.1,35.8c-57,0-108.2,26.8-140.5,73.6C34.4,156,26.9,214.9,46.6,267
	c4.9,13.3,12.9,26.3,23.7,38.8l136.8,160.7l136.7-160.6c0,0,0.1-0.1,0.1-0.1c10.8-12.5,18.7-25.5,23.6-38.7
	c19.7-52.2,12.3-111.1-20-157.7C315.3,62.6,264.1,35.8,207.1,35.8z"/>
<path d="M207.1,306.7c-55.3,0-100.3-45-100.3-100.3s45-100.3,100.3-100.3s100.3,45,100.3,100.3C307.4,261.8,262.4,306.7,207.1,306.7
	z M207.1,142c-35.5,0-64.4,28.9-64.4,64.4s28.9,64.4,64.4,64.4s64.4-28.9,64.4-64.4S242.7,142,207.1,142z"/>
</svg>
