<!-- Generator: Adobe Illustrator 22.0.0, SVG Export Plug-In  -->
<svg version="1.1"
	 xmlns="http://www.w3.org/2000/svg" xmlns:xlink="http://www.w3.org/1999/xlink" xmlns:a="http://ns.adobe.com/AdobeSVGViewerExtensions/3.0/"
	 x="0px" y="0px" width="48px" height="43.4px" viewBox="0 0 48 43.4" style="enable-background:new 0 0 48 43.4;"
	 xml:space="preserve">
<defs>
</defs>
<g>
	<path d="M14.7,14.3c0.2,0.2,0.4,0.2,0.6,0.2c0.2,0,0.4-0.1,0.6-0.2c0.3-0.3,0.3-0.8,0-1.1c-0.8-0.8-0.8-2.1,0-2.9
		c0.7-0.7,1.1-1.6,1.1-2.6c0-1-0.4-1.9-1.1-2.6c-0.3-0.3-0.8-0.3-1.1,0c-0.3,0.3-0.3,0.8,0,1.1c0.4,0.4,0.6,0.9,0.6,1.5
		c0,0.6-0.2,1.1-0.6,1.5C13.2,10.6,13.2,12.9,14.7,14.3L14.7,14.3z M14.7,14.3"/>
	<path d="M32.3,14.3c0.2,0.2,0.4,0.2,0.6,0.2c0.2,0,0.4-0.1,0.6-0.2c0.3-0.3,0.3-0.8,0-1.1c-0.8-0.8-0.8-2.1,0-2.9
		c0.7-0.7,1.1-1.6,1.1-2.6c0-1-0.4-1.9-1.1-2.6c-0.3-0.3-0.8-0.3-1.1,0c-0.3,0.3-0.3,0.8,0,1.1c0.4,0.4,0.6,0.9,0.6,1.5
		c0,0.6-0.2,1.1-0.6,1.5C30.8,10.6,30.8,12.9,32.3,14.3L32.3,14.3z M32.3,14.3"/>
	<path d="M23.5,9.5c0.2,0.2,0.4,0.2,0.6,0.2c0.2,0,0.4-0.1,0.6-0.2c0.3-0.3,0.3-0.8,0-1.1c-0.8-0.8-0.8-2.1,0-2.9
		c0.7-0.7,1.1-1.6,1.1-2.6c0-1-0.4-1.9-1.1-2.6c-0.3-0.3-0.8-0.3-1.1,0c-0.3,0.3-0.3,0.8,0,1.1c0.4,0.4,0.6,0.9,0.6,1.5
		c0,0.6-0.2,1.1-0.6,1.5C22,5.8,22,8.1,23.5,9.5L23.5,9.5z M23.5,9.5"/>
	<path d="M20.3,20.6c0.1,0,0.1,0,0.2,0c1.1-0.3,2.3-0.4,3.5-0.4h0c0.4,0,0.8-0.4,0.8-0.8c0-0.4-0.4-0.8-0.8-0.8h0
		c-1.3,0-2.6,0.1-3.9,0.4c-0.4,0.1-0.7,0.5-0.6,1C19.6,20.3,19.9,20.6,20.3,20.6L20.3,20.6z M20.3,20.6"/>
	<path d="M7.9,33.7c0.1,0,0.1,0,0.1,0c0.4,0,0.7-0.3,0.8-0.7c0.8-4.6,3.6-8.6,7.3-10.8c0.4-0.2,0.5-0.7,0.3-1.1
		c-0.2-0.4-0.7-0.5-1.1-0.3c-4.2,2.5-7.2,6.9-8.1,11.9C7.1,33.2,7.4,33.7,7.9,33.7L7.9,33.7z M7.9,33.7"/>
	<path d="M44.5,32.7c-1.4-8.5-8.1-15.3-16.5-16.9c0-0.1,0-0.3,0-0.4c0-2.2-1.8-4-4-4c-2.2,0-4,1.8-4,4c0,0.1,0,0.3,0,0.4
		c-8.4,1.6-15.1,8.4-16.5,16.9C1.8,33.6,0,35,0,36.6c0,4.1,12.4,6.8,24,6.8c11.6,0,24-2.7,24-6.8C48,35,46.2,33.6,44.5,32.7
		L44.5,32.7z M21.6,15.5c0,0,0-0.1,0-0.1c0-1.3,1.1-2.4,2.4-2.4c1.3,0,2.4,1.1,2.4,2.4c0,0,0,0.1,0,0.1c0,0-0.1,0-0.1,0
		c-0.3,0-0.6,0-0.8-0.1c-0.1,0-0.2,0-0.3,0c-0.4,0-0.8,0-1.1,0c-0.4,0-0.8,0-1.1,0c-0.1,0-0.2,0-0.3,0c-0.3,0-0.6,0-0.8,0.1
		C21.7,15.5,21.6,15.5,21.6,15.5L21.6,15.5z M21.1,17.2c0.4-0.1,0.9-0.1,1.3-0.1c0.1,0,0.2,0,0.3,0c0.9-0.1,1.8-0.1,2.6,0
		c0.1,0,0.2,0,0.3,0c0.4,0,0.9,0.1,1.3,0.1c8.3,1.3,14.9,7.9,16.1,16.3c0,0.3,0.1,0.5,0.1,0.8c0,0.1,0,0.2,0,0.3
		c0,0.4,0.1,0.7,0.1,1.1c-12.6,2.9-25.8,2.9-38.4,0c0-0.4,0-0.7,0.1-1.1c0-0.1,0-0.2,0-0.3c0-0.3,0.1-0.5,0.1-0.8
		C6.2,25.1,12.8,18.4,21.1,17.2L21.1,17.2z M24,41.8c-13.7,0-22.4-3.4-22.4-5.2c0-0.3,0.4-1,1.6-1.9c0,0,0,0.1,0,0.1
		c0,0.4,0,0.9,0,1.3v0.6l0.6,0.1c6.6,1.6,13.4,2.4,20.2,2.4c6.8,0,13.6-0.8,20.2-2.4l0.6-0.1v-0.6c0-0.4,0-0.9,0-1.3
		c0,0,0-0.1,0-0.1c1.3,0.9,1.6,1.6,1.6,1.9C46.4,38.3,37.7,41.8,24,41.8L24,41.8z M24,41.8"/>
</g>
</svg>
