<!-- Generator: Adobe Illustrator 22.0.0, SVG Export Plug-In  -->
<svg version="1.1"
	 xmlns="http://www.w3.org/2000/svg" xmlns:xlink="http://www.w3.org/1999/xlink" xmlns:a="http://ns.adobe.com/AdobeSVGViewerExtensions/3.0/"
	 x="0px" y="0px" width="48px" height="43.2px" viewBox="0 0 48 43.2" style="enable-background:new 0 0 48 43.2;"
	 xml:space="preserve">
<defs>
</defs>
<g>
	<path d="M48,14.4c-0.1-1.4-1.7-2.4-5-3.3c0.1-0.2,0.2-0.5,0.2-0.7V4.8h0C42.9,0.1,23.8,0,21.6,0C19.4,0,0.3,0.1,0,4.8h0v5.6
		c0,1.5,2,2.7,4.9,3.6c0,0.1-0.1,0.3-0.1,0.4h0V20c-3.1,0.8-4.7,1.9-4.8,3.2h0v5.6c0,1.1,1,2,2.5,2.7c-0.1,0.2-0.1,0.3-0.1,0.5h0
		v5.6c0,2.7,6,4.3,12.7,5.1c0,0,0.1,0,0.1,0c0,0,0,0,0,0c1.3,0.1,2.6,0.3,3.9,0.3c0,0,0.1,0,0.1,0c0,0,0,0,0,0
		c1.6,0.1,3.3,0.1,4.8,0.1s3.1-0.1,4.8-0.1c0,0,0,0,0,0c0,0,0.1,0,0.1,0c1.3-0.1,2.6-0.2,3.9-0.3c0,0,0,0,0,0c0.1,0,0.1,0,0.1,0
		c6.7-0.8,12.6-2.4,12.7-5.1V32h0c-0.1-1-0.9-1.8-2.5-2.5c0.1-0.2,0.2-0.5,0.2-0.7v-5.2c2.9-0.9,4.8-2.1,4.8-3.6L48,14.4L48,14.4z
		 M41.5,29.1l-0.3,0.2c-0.4,0.4-1.1,0.7-2,1.1v-3.8c1-0.3,1.8-0.7,2.4-1.1v3.3C41.6,28.9,41.6,29,41.5,29.1L41.5,29.1z M23.6,32.8
		c-0.1,0-0.2,0-0.4,0c-0.3,0-0.6,0-0.9,0v-4c0.2,0,0.4,0,0.7,0l0.1,0c0.8,0,1.6,0,2.4-0.1v4c-0.2,0-0.3,0-0.5,0
		C24.6,32.7,24.1,32.8,23.6,32.8L23.6,32.8z M20.1,32.8c-0.4,0-0.7,0-1.1,0l-0.1,0c-0.4,0-0.9,0-1.3-0.1v-4c0.8,0,1.6,0.1,2.4,0.1
		c0,0,0.1,0,0.1,0c0.2,0,0.4,0,0.7,0v4c-0.2,0-0.3,0-0.5,0C20.3,32.8,20.2,32.8,20.1,32.8L20.1,32.8z M5.7,31
		C5.7,31,5.6,30.9,5.7,31l-0.1-3.9c0.7,0.2,1.6,0.4,2.4,0.6v3.9c-0.7-0.2-1.4-0.3-2-0.5C5.9,31,5.8,31,5.7,31L5.7,31z M22.5,37.6
		c0.2,0,0.4,0,0.7,0v4c-1.1,0-2.2,0-3.2-0.1v-4c0.8,0,1.6,0.1,2.4,0.1C22.5,37.6,22.5,37.6,22.5,37.6L22.5,37.6z M25.6,37.6
		c0.8,0,1.6,0,2.4-0.1v4c-1,0.1-2.1,0.1-3.2,0.1v-4c0.2,0,0.4,0,0.7,0C25.5,37.6,25.5,37.6,25.6,37.6L25.6,37.6z M32,37.2v4
		c-0.8,0.1-1.6,0.2-2.4,0.2v-4C30.4,37.4,31.2,37.3,32,37.2L32,37.2z M33.6,37.1c0.8-0.1,1.6-0.2,2.4-0.3v3.9
		c-0.8,0.1-1.6,0.3-2.4,0.4V37.1z M37.6,36.4c0.8-0.2,1.7-0.4,2.4-0.6v3.9c-0.7,0.2-1.5,0.4-2.4,0.6V36.4z M10.4,36.4v3.9
		c-0.9-0.2-1.7-0.4-2.4-0.6v-3.9C8.7,36.1,9.6,36.3,10.4,36.4L10.4,36.4z M12,36.7c0.8,0.1,1.6,0.2,2.4,0.3v4
		c-0.8-0.1-1.6-0.2-2.4-0.4V36.7z M16,37.2c0.8,0.1,1.6,0.1,2.4,0.2v4c-0.8-0.1-1.6-0.1-2.4-0.2V37.2z M14,32.4c-0.1,0-0.2,0-0.2,0
		c-0.1,0-0.1,0-0.2,0v-4c0.8,0.1,1.6,0.1,2.4,0.2v4C15.3,32.6,14.7,32.5,14,32.4L14,32.4z M12,28.3v4c-0.8-0.1-1.6-0.2-2.4-0.4v-3.9
		C10.4,28,11.2,28.2,12,28.3L12,28.3z M27.7,32.6c-0.2,0-0.4,0-0.5,0v-4c0.8-0.1,1.6-0.1,2.4-0.2v4c-0.5,0.1-1,0.1-1.5,0.1
		C28,32.5,27.8,32.6,27.7,32.6L27.7,32.6z M31.2,32.2v-4c0.8-0.1,1.6-0.2,2.4-0.3v3.9C32.8,32,32,32.1,31.2,32.2L31.2,32.2z
		 M35.2,27.6c0.9-0.2,1.7-0.4,2.4-0.6v3.9c-0.7,0.2-1.5,0.4-2.4,0.6V27.6z M24.3,24c-0.6,0-1.2,0-1.8-0.1c0,0-0.1,0-0.1,0v-4
		c0.8,0,1.6,0.1,2.4,0.1c0,0,0.1,0,0.1,0c0.2,0,0.4,0,0.7,0v4c-0.4,0-0.8,0-1.2,0C24.4,24,24.3,24,24.3,24L24.3,24z M5.6,12.5V8.7
		C6.3,8.9,7.2,9.1,8,9.2v3.9c-0.1,0-0.2,0-0.3-0.1c-0.4-0.1-0.8-0.2-1.2-0.3C6.2,12.7,5.9,12.6,5.6,12.5L5.6,12.5z M20.1,10.4
		c0.2,0,0.4,0,0.7,0v4c-1.1,0-2.1,0-3.2-0.1v-4c0.8,0,1.6,0.1,2.4,0.1C20.1,10.4,20.1,10.4,20.1,10.4L20.1,10.4z M23.2,10.4
		c0.8,0,1.6,0,2.4-0.1v4c-0.1,0-0.3,0-0.4,0c0,0,0,0,0,0c-0.5,0-1.1,0-1.6,0.1c-0.1,0-0.2,0-0.3,0c-0.3,0-0.6,0-0.9,0v-4
		c0.2,0,0.4,0,0.7,0L23.2,10.4z M41.4,10.8L41.4,10.8L41.1,11c-0.4,0.3-1.1,0.7-1.9,1V8.2c1-0.3,1.8-0.7,2.4-1.1v3.3
		C41.6,10.5,41.5,10.6,41.4,10.8L41.4,10.8z M31.2,13.8v-4c0.8-0.1,1.6-0.2,2.4-0.3v3.9C32.8,13.6,32,13.7,31.2,13.8L31.2,13.8z
		 M35.2,13.1V9.2c0.9-0.2,1.7-0.4,2.4-0.6v3.9C36.9,12.7,36.1,12.9,35.2,13.1L35.2,13.1z M29.6,10v4c-0.8,0.1-1.6,0.2-2.4,0.2v-4
		C28,10.2,28.8,10.1,29.6,10L29.6,10z M13.6,14v-4c0.8,0.1,1.6,0.1,2.4,0.2v4C15.2,14.1,14.4,14.1,13.6,14L13.6,14z M12,9.8v4
		c-0.2,0-0.3,0-0.5-0.1c-0.1,0-0.2,0-0.3,0c-0.5-0.1-0.9-0.1-1.4-0.2c-0.1,0-0.2,0-0.3,0V9.5C10.4,9.6,11.2,9.8,12,9.8L12,9.8z
		 M20.6,23.8c-0.1,0-0.2,0-0.3,0c-0.5,0-1-0.1-1.5-0.1c-0.1,0-0.2,0-0.3,0c0,0,0,0-0.1,0v-4c0.8,0.1,1.6,0.1,2.4,0.2v4
		C20.7,23.8,20.7,23.8,20.6,23.8L20.6,23.8z M15.3,23.2c-0.3-0.1-0.6-0.1-0.9-0.2v-3.9c0.8,0.1,1.6,0.2,2.4,0.3v4
		C16.3,23.3,15.8,23.3,15.3,23.2C15.4,23.2,15.3,23.2,15.3,23.2L15.3,23.2z M12.8,18.8v3.9c-0.9-0.2-1.7-0.4-2.4-0.6v-3.9
		C11.1,18.5,11.9,18.7,12.8,18.8L12.8,18.8z M8.8,17.8v3.8c-1.3-0.5-2.1-1-2.3-1.4l-0.1-0.1c0,0,0-0.1,0-0.1v-3.3
		C7,17.1,7.8,17.5,8.8,17.8L8.8,17.8z M28,20c0.8,0,1.6,0,2.4-0.1v4c-1,0.1-2.1,0.1-3.2,0.1v-4c0.2,0,0.4,0,0.7,0L28,20z M38.3,23.1
		c-0.4,0.1-0.7,0.1-1.1,0.2c-0.2,0-0.4,0.1-0.6,0.1c-0.2,0-0.4,0.1-0.6,0.1v-4c0.8-0.1,1.6-0.2,2.4-0.3L38.3,23.1
		C38.4,23,38.4,23.1,38.3,23.1L38.3,23.1z M32.9,23.7c-0.3,0-0.6,0-0.9,0.1v-4c0.8-0.1,1.6-0.1,2.4-0.2v4
		C33.9,23.6,33.5,23.7,32.9,23.7C33,23.7,32.9,23.7,32.9,23.7L32.9,23.7z M42.1,22.2c-0.4,0.1-0.8,0.2-1.3,0.3
		c-0.2,0-0.4,0.1-0.6,0.1c-0.1,0-0.1,0-0.2,0v-3.9c0.9-0.2,1.7-0.4,2.4-0.6v3.9C42.3,22.2,42.2,22.2,42.1,22.2L42.1,22.2z
		 M46.4,14.5c-0.1,0.5-1.3,1.3-3.5,1.9c-2.8,0.9-7.3,1.7-12.9,1.9c-0.3,0-0.6,0-0.9,0c-0.2,0-0.5,0-0.7,0c-0.7,0-1.3,0-2,0
		c-0.7,0-1.4,0-2,0c-0.2,0-0.5,0-0.7,0c-0.3,0-0.6,0-0.9,0c-5.6-0.3-10-1-12.9-1.9c-2.2-0.7-3.4-1.4-3.5-1.9c0,0,0,0,0,0
		c0.1,0,0.1,0,0.2,0c0.3,0.1,0.6,0.1,1,0.2c1.6,0.3,3.4,0.6,5.2,0.8c0,0,0,0,0,0h0c1.3,0.1,2.6,0.3,4,0.3c0,0,0,0,0,0c0,0,0,0,0,0
		c1,0.1,2,0.1,3,0.1c0.6,0,1.2,0,1.8,0c0.4,0,0.8,0,1.3,0c5.8-0.1,11.2-0.8,14.9-1.9c0.2-0.1,0.3-0.1,0.5-0.2c0.1,0,0.2-0.1,0.3-0.1
		c0.3-0.1,0.6-0.2,0.8-0.3c0,0,0.1,0,0.1-0.1c0.2-0.1,0.4-0.2,0.7-0.3c0.1,0,0.1-0.1,0.2-0.1c0.2-0.1,0.4-0.2,0.6-0.3
		c0.1,0,0.2-0.1,0.2-0.1c0.1-0.1,0.2-0.1,0.3-0.2c0.1,0,0.1-0.1,0.2-0.1C45.4,13.3,46.3,14.1,46.4,14.5L46.4,14.5z M21.6,1.6
		c13.2,0,19.9,2.1,20,3.3c-0.1,0.5-1.3,1.3-3.5,1.9c-2.8,0.9-7.3,1.7-12.9,1.9c-0.3,0-0.6,0-0.9,0c-0.2,0-0.5,0-0.7,0
		c-0.7,0-1.3,0-2,0c-0.7,0-1.4,0-2,0c-0.2,0-0.5,0-0.7,0c-0.3,0-0.6,0-0.9,0c-5.6-0.2-10-1-12.9-1.9C2.9,6.1,1.7,5.4,1.6,4.9
		C1.7,3.7,8.4,1.6,21.6,1.6L21.6,1.6z M1.6,10.4V7.1C2.2,7.5,3,7.9,4,8.2V12C2.4,11.4,1.6,10.8,1.6,10.4L1.6,10.4z M5.5,21.5
		C5.5,21.5,5.5,21.5,5.5,21.5c1.1,1.1,3.4,2,6.2,2.7c0.1,0,0.1,0,0.2,0c0.2,0,0.4,0.1,0.6,0.1c2.6,0.6,5.7,0.9,9.1,1.1c0,0,0,0,0,0
		c0,0,0,0,0,0c1.1,0.1,2.2,0.1,3.3,0.1c0.5,0,1,0,1.5,0c0.6,0,1.1,0,1.7,0c1,0,2.1-0.1,3.1-0.1c0,0,0,0,0,0c0,0,0,0,0,0
		c3.4-0.2,6.6-0.6,9.2-1.2c-0.6,0.3-1.4,0.6-2.4,0.9c-3,0.9-7.8,1.8-13.8,2c-0.2,0-0.4,0-0.5,0c-0.2,0-0.4,0-0.6,0c-0.5,0-1,0-1.5,0
		c-0.7,0-1.4,0-2,0c-0.2,0-0.5,0-0.7,0c-0.3,0-0.6,0-0.9,0c-5.6-0.3-10-1.1-12.9-1.9c-2.2-0.7-3.4-1.4-3.5-1.9
		C1.7,22.9,2.5,22.2,5.5,21.5L5.5,21.5z M1.6,28.8v-3.3C2.2,25.9,3,26.3,4,26.6v3.8l-0.5-0.2l0,0C2.3,29.7,1.6,29.2,1.6,28.8
		L1.6,28.8z M4,37.6v-3.3c0.6,0.4,1.4,0.8,2.4,1.1v3.8C4.8,38.6,4,38,4,37.6L4,37.6z M41.6,39.2v-3.8c0.9-0.3,1.8-0.7,2.4-1.1v3.3
		C44,38,43.2,38.6,41.6,39.2L41.6,39.2z M44,32.1c-0.1,0.5-1.3,1.3-3.5,1.9c-2.8,0.9-7.3,1.7-12.9,1.9c-0.3,0-0.6,0-0.9,0
		c-0.2,0-0.5,0-0.7,0c-0.7,0-1.3,0-2,0c-0.7,0-1.4,0-2,0c-0.2,0-0.5,0-0.7,0c-0.3,0-0.6,0-0.9,0c-5.6-0.2-10-1-12.9-1.9
		c-2.1-0.7-3.3-1.3-3.5-1.9c0.2,0.1,0.5,0.2,0.7,0.2c0,0,0.1,0,0.1,0c0.2,0.1,0.4,0.1,0.7,0.2c0.1,0,0.2,0.1,0.3,0.1
		c0.1,0,0.3,0.1,0.4,0.1c2.9,0.7,6.6,1.3,10.6,1.5c0,0,0,0,0,0c1.2,0.1,2.5,0.1,3.8,0.1c0.3,0,0.7,0,1,0c0.4,0,0.9,0,1.3,0
		c1.2,0,2.3-0.1,3.4-0.1c0,0,0,0,0,0c0,0,0,0,0,0c1.4-0.1,2.7-0.2,4-0.3c0,0,0,0,0,0c0,0,0,0,0,0c1.4-0.2,2.8-0.4,4-0.6
		c0.3,0,0.5-0.1,0.8-0.1c0.1,0,0.1,0,0.2,0c2.4-0.5,4.4-1.1,5.8-1.9c0.1,0,0.1-0.1,0.2-0.1c0.1-0.1,0.2-0.1,0.3-0.2
		c0.1-0.1,0.2-0.1,0.2-0.1C43.5,31.4,43.9,31.9,44,32.1L44,32.1z M44,21.6v-3.8c1-0.3,1.8-0.7,2.4-1.1V20C46.4,20.4,45.6,21,44,21.6
		L44,21.6z M44,21.6"/>
</g>
</svg>
