<!-- Generator: Adobe Illustrator 22.0.0, SVG Export Plug-In  -->
<svg version="1.1"
	 xmlns="http://www.w3.org/2000/svg" xmlns:xlink="http://www.w3.org/1999/xlink" xmlns:a="http://ns.adobe.com/AdobeSVGViewerExtensions/3.0/"
	 x="0px" y="0px" width="183.4px" height="182.5px" viewBox="0 0 183.4 182.5" style="enable-background:new 0 0 183.4 182.5;"
	 xml:space="preserve">
<defs>
</defs>
<g>
	<path d="M176.2,137.3c-16.5-14.3-31.7-34.4-31.7-84.6C144.4,23.7,120.8,0,91.7,0C62.6,0,38.9,23.7,38.9,52.7
		c0,50.3-15.2,70.4-31.7,84.6c-4.6,4-7.2,9.7-7.2,15.7c0,3.3,2.7,6,6,6h56.9c2.8,13.3,14.6,23.4,28.8,23.4c14.1,0,26-10,28.8-23.4
		h56.9c3.3,0,6-2.7,6-6C183.4,147,180.8,141.3,176.2,137.3L176.2,137.3z M91.7,170.5c-7.5,0-13.9-4.7-16.3-11.4H108
		C105.6,165.7,99.2,170.5,91.7,170.5L91.7,170.5z M14.4,147.1c0.2-0.2,0.4-0.5,0.7-0.7c25.2-21.7,35.9-49.7,35.9-93.7
		C50.9,30.3,69.2,12,91.7,12c22.5,0,40.7,18.3,40.7,40.7c0,43.9,10.7,71.9,35.9,93.7c0.2,0.2,0.5,0.4,0.7,0.7H14.4z M14.4,147.1"/>
</g>
</svg>
