<!-- Generator: Adobe Illustrator 22.0.0, SVG Export Plug-In  -->
<svg version="1.1"
	 xmlns="http://www.w3.org/2000/svg" xmlns:xlink="http://www.w3.org/1999/xlink" xmlns:a="http://ns.adobe.com/AdobeSVGViewerExtensions/3.0/"
	 x="0px" y="0px" width="384.8px" height="249.2px" viewBox="0 0 384.8 249.2" style="enable-background:new 0 0 384.8 249.2;"
	 xml:space="preserve">
<defs>
</defs>
<g>
	<path d="M379.9,101l-36.1-21.5L306.2,5.5c-1.7-3.4-5.2-5.5-8.9-5.5H10C4.5,0,0,4.5,0,10v179.1c0,2.7,1.1,5.2,2.9,7.1l11.7,11.7
		c1.9,1.9,4.4,2.9,7.1,2.9h21.4c4.6,21.9,24.1,38.5,47.4,38.5c23.3,0,42.8-16.5,47.4-38.5h113.5c4.6,21.9,24.1,38.5,47.4,38.5
		c23.3,0,42.8-16.5,47.4-38.5h16.8c2.7,0,5.2-1.1,7.1-2.9l11.7-11.7c1.9-1.9,2.9-4.4,2.9-7.1v-79.5
		C384.8,106.1,382.9,102.8,379.9,101L379.9,101z M90.5,229.2c-15.7,0-28.5-12.8-28.5-28.5c0-15.7,12.8-28.5,28.5-28.5
		c15.7,0,28.5,12.8,28.5,28.5C118.9,216.5,106.2,229.2,90.5,229.2L90.5,229.2z M298.9,229.2c-15.7,0-28.5-12.8-28.5-28.5v0
		c0-15.7,12.8-28.5,28.5-28.5c15.7,0,28.5,12.8,28.5,28.5C327.3,216.5,314.6,229.2,298.9,229.2L298.9,229.2z M364.8,185l-5.8,5.8
		h-12.7c-4.6-21.9-24.1-38.5-47.4-38.5c-23.3,0-42.8,16.5-47.4,38.5H137.9c-4.6-21.9-24.1-38.5-47.4-38.5
		c-23.3,0-42.8,16.5-47.4,38.5H25.8L20,185V20h271.1l36.1,71.2c0.9,1.7,2.2,3.1,3.8,4.1l33.8,20V185z M364.8,185"/>
	<path d="M171.2,36.8h-40.7c-5.5,0-10,4.5-10,10v48.7c0,2.7,1.1,5.2,2.9,7.1c1.9,1.9,4.4,2.9,7.1,2.9h0l40.7-0.1c5.5,0,10-4.5,10-10
		V46.8C181.2,41.3,176.7,36.8,171.2,36.8L171.2,36.8z M161.2,85.5l-20.7,0V56.8h20.7V85.5z M161.2,85.5"/>
	<path d="M96.6,36.8H55.9c-5.5,0-10,4.5-10,10v48.7c0,2.7,1.1,5.2,2.9,7.1c1.9,1.9,4.4,2.9,7.1,2.9h0l40.7-0.1c5.5,0,10-4.5,10-10
		V46.8C106.6,41.3,102.2,36.8,96.6,36.8L96.6,36.8z M86.6,85.5l-20.7,0V56.8h20.7V85.5z M86.6,85.5"/>
	<path d="M277.5,42.3c-1.7-3.4-5.2-5.5-8.9-5.5h-61.1c-5.5,0-10,4.5-10,10v48.7c0,2.7,1.1,5.2,2.9,7.1c1.9,1.9,4.4,2.9,7.1,2.9h0
		l85.4-0.1c3.5,0,6.7-1.8,8.5-4.7c1.8-2.9,2-6.6,0.4-9.7L277.5,42.3z M217.4,85.5V56.8h44.9l14.3,28.7L217.4,85.5z M217.4,85.5"/>
</g>
</svg>
