<?xml version="1.0" encoding="UTF-8"?><!DOCTYPE svg PUBLIC "-//W3C//DTD SVG 1.1//EN" "http://www.w3.org/Graphics/SVG/1.1/DTD/svg11.dtd"><svg xmlns="http://www.w3.org/2000/svg" xml:space="preserve" width="210mm" height="297mm" version="1.1" style="shape-rendering:geometricPrecision; text-rendering:geometricPrecision; image-rendering:optimizeQuality; fill-rule:evenodd; clip-rule:evenodd" viewBox="0 0 21000 29700" xmlns:xlink="http://www.w3.org/1999/xlink">
 <defs>
  <style type="text/css">
   <![CDATA[
    .str1 {stroke:#BA5D8C;stroke-width:100;stroke-linejoin:round;stroke-opacity:0.501961}
    .str10 {stroke:#BA5D8C;stroke-width:100;stroke-linejoin:round;stroke-opacity:0.600000}
    .str0 {stroke:#BA5D8C;stroke-width:100;stroke-linejoin:round;stroke-opacity:0.701961}
    .str2 {stroke:#BA5D8C;stroke-width:100;stroke-linecap:round;stroke-opacity:0.701961}
    .str6 {stroke:#E79074;stroke-width:100;stroke-linejoin:round;stroke-opacity:0.800000}
    .str8 {stroke:#BA5D8C;stroke-width:100;stroke-linecap:round;stroke-linejoin:round;stroke-opacity:0.800000}
    .str4 {stroke:#BA5D8C;stroke-width:100;stroke-opacity:0.901961}
    .str7 {stroke:white;stroke-width:100;stroke-linejoin:round;stroke-opacity:0.901961}
    .str3 {stroke:#BA5D8C;stroke-width:100;stroke-linecap:round;stroke-opacity:0.901961}
    .str5 {stroke:#E79074;stroke-width:100}
    .str9 {stroke:#E79074;stroke-width:100;stroke-linejoin:round}
    .fil8 {fill:none}
    .fil0 {fill:none}
    .fil7 {fill:none}
    .fil2 {fill:none}
    .fil4 {fill:#E79074}
    .fil1 {fill:#BA5D8C;fill-opacity:0.501961}
    .fil9 {fill:#BA5D8C;fill-opacity:0.600000}
    .fil5 {fill:#E79074;fill-opacity:0.800000}
    .fil3 {fill:#BA5D8C;fill-opacity:0.901961}
    .fil6 {fill:#FFE8D6;fill-opacity:0.901961}
   ]]>
  </style>
 </defs>
 <g id="Слой_x0020_1">
  <metadata id="CorelCorpID_0Corel-Layer"/>
  <g id="_771689344">
   <path class="fil0 str0" d="M12266 12024l-1178 0c0,407 527,736 1178,736 651,0 1178,-330 1178,-736l-1178 0z"/>
   <path class="fil0 str0" d="M8733 12024l-1178 0c0,407 527,736 1178,736 651,0 1178,-330 1178,-736l-1178 0z"/>
   <path class="fil1 str1" d="M12266 12024l-1178 0c0,186 527,337 1178,337 651,0 1178,-151 1178,-337l-1178 0z"/>
   <path class="fil1 str1" d="M8733 12024l-1178 0c0,186 527,337 1178,337 651,0 1178,-151 1178,-337l-1178 0z"/>
   <line class="fil0 str2" x1="10499" y1="13128" x2="10499" y2= "14119" />
   <line class="fil2 str3" x1="9164" y1="12709" x2="9164" y2= "14780" />
   <line class="fil0 str2" x1="7829" y1="12509" x2="7829" y2= "15585" />
   <line class="fil0 str2" x1="13170" y1="12509" x2="13170" y2= "15585" />
   <line class="fil2 str3" x1="11835" y1="12709" x2="11835" y2= "14780" />
   <path class="fil3 str4" d="M10499 14119c81,0 147,66 147,147 0,81 -66,147 -147,147 -81,0 -147,-66 -147,-147 0,-81 66,-147 147,-147z"/>
   <path class="fil3 str4" d="M7829 15585c81,0 147,66 147,147 0,81 -66,147 -147,147 -81,0 -147,-66 -147,-147 0,-81 66,-147 147,-147z"/>
   <path class="fil3 str4" d="M13170 15585c81,0 147,66 147,147 0,81 -66,147 -147,147 -81,0 -147,-66 -147,-147 0,-81 66,-147 147,-147z"/>
   <circle class="fil4 str5" cx="9164" cy="14927" r="147"/>
   <circle class="fil4 str5" cx="11835" cy="14927" r="147"/>
   <path class="fil5 str6" d="M10499 12024l-1767 0c0,610 954,1104 1767,1104 813,0 1767,-494 1767,-1104l-1767 0z"/>
   <path class="fil6 str7" d="M10499 12024l-1767 0c0,284 954,514 1767,514 813,0 1767,-230 1767,-514l-1767 0z"/>
   <line class="fil7 str8" x1="7555" y1="12024" x2="13444" y2= "12024" />
   <g>
    <path class="fil0 str0" d="M12266 17684l-1178 0c0,-407 527,-736 1178,-736 651,0 1178,330 1178,736l-1178 0z"/>
    <path class="fil0 str0" d="M8733 17684l-1178 0c0,-407 527,-736 1178,-736 651,0 1178,330 1178,736l-1178 0z"/>
    <path class="fil1 str1" d="M12266 17684l-1178 0c0,-186 527,-337 1178,-337 651,0 1178,151 1178,337l-1178 0z"/>
    <path class="fil1 str1" d="M8733 17684l-1178 0c0,-186 527,-337 1178,-337 651,0 1178,151 1178,337l-1178 0z"/>
    <path class="fil8 str9" d="M10499 17684l-1767 0c0,-610 954,-1104 1767,-1104 813,0 1767,494 1767,1104l-1767 0z"/>
    <path class="fil9 str10" d="M10499 17684l-1767 0c0,-284 954,-514 1767,-514 813,0 1767,230 1767,514l-1767 0z"/>
    <line class="fil7 str8" x1="7555" y1="17684" x2="13444" y2= "17684" />
   </g>
  </g>
 </g>
</svg>
