<?xml version="1.0" encoding="UTF-8"?><!DOCTYPE svg PUBLIC "-//W3C//DTD SVG 1.1//EN" "http://www.w3.org/Graphics/SVG/1.1/DTD/svg11.dtd"><svg xmlns="http://www.w3.org/2000/svg" xml:space="preserve" width="210mm" height="297mm" version="1.1" style="shape-rendering:geometricPrecision; text-rendering:geometricPrecision; image-rendering:optimizeQuality; fill-rule:evenodd; clip-rule:evenodd" viewBox="0 0 21000 29700" xmlns:xlink="http://www.w3.org/1999/xlink">
 <defs>
  <style type="text/css">
   <![CDATA[
    .fil4 {fill:#BA5D8C}
    .fil7 {fill:#E79074}
    .fil8 {fill:white}
    .fil10 {fill:#E79074;fill-opacity:0.200000}
    .fil3 {fill:#BA5D8C;fill-opacity:0.301961}
    .fil1 {fill:#BA5D8C;fill-opacity:0.501961}
    .fil6 {fill:#E79074;fill-opacity:0.501961}
    .fil9 {fill:#E79074;fill-opacity:0.600000}
    .fil0 {fill:white;fill-opacity:0.600000}
    .fil2 {fill:#BA5D8C;fill-opacity:0.701961}
    .fil5 {fill:white;fill-opacity:0.701961}
   ]]>
  </style>
 </defs>
 <g id="Слой_x0020_1">
  <metadata id="CorelCorpID_0Corel-Layer"/>
  <g id="_833580016">
   <path class="fil0" d="M12796 15517c-614,-2579 -4181,-2548 -4650,0 -208,1129 4926,1160 4650,0z"/>
   <path class="fil1" d="M12799 15515c-304,-1277 -1332,-1911 -2349,-1919 -565,394 -771,1405 -947,2708 1436,208 3472,-47 3296,-789z"/>
   <path class="fil1" d="M12798 15518c-303,-1274 -1333,-1912 -2348,-1923 452,50 791,1744 677,2554 -1170,151 -2683,18 -2978,-499 217,1000 4914,980 4649,-133z"/>
   <path class="fil2" d="M10468 13596c801,188 1370,1456 1444,2638 204,-48 384,-109 528,-182 -331,-1253 -803,-2292 -1972,-2456z"/>
   <path class="fil3" d="M10450 13596c-1038,-9 -2065,636 -2302,1923 -46,248 166,443 522,584 167,-988 334,-2095 1780,-2506z"/>
   <path class="fil1" d="M10450 13596c-1045,-9 -2065,640 -2301,1919 -26,142 33,267 155,374 203,-1327 920,-2119 2146,-2294z"/>
   <path class="fil4" d="M8149 15515c-208,1129 4926,1160 4650,0 -14,-59 -30,-116 -47,-173 511,136 824,319 824,520 0,422 -1383,765 -3090,765 -1706,0 -3090,-342 -3090,-765 0,-196 298,-375 787,-510 -13,53 -25,107 -35,163z"/>
   <path class="fil5" d="M8149 15515c-208,1129 4926,1160 4650,0 -14,-59 -30,-116 -47,-173 511,136 824,319 824,520 0,422 -1383,765 -3090,765 -1706,0 -3090,-342 -3090,-765 0,-196 298,-375 787,-510 -13,53 -25,107 -35,163z"/>
   <path class="fil6" d="M12707 15855c87,-99 122,-212 92,-340 -14,-59 -30,-116 -47,-173 511,136 824,319 824,520 0,422 -1383,765 -3090,765 -674,0 -1297,-53 -1804,-144 1201,82 3600,-32 4025,-627z"/>
   <path class="fil7" d="M12777 15428c-8,-29 -16,-58 -25,-86 511,136 824,319 824,520 0,416 -1345,755 -3018,764 1114,-113 2027,-249 2409,-520 333,-236 319,-497 -189,-678z"/>
   <path class="fil8" d="M10626 13388c-139,18 -234,18 -361,0 28,75 27,154 -2,214 79,-5 261,-9 364,1 -33,-65 -35,-145 -1,-215z"/>
   <path class="fil6" d="M10626 13388c-88,11 -159,15 -231,12 12,55 9,138 2,196 122,0 184,3 230,7 -33,-65 -35,-145 -1,-215z"/>
   <path class="fil9" d="M10547 13396c-21,2 -41,3 -60,4 -10,13 -8,198 2,197 21,0 43,1 63,2l-1 -1c-14,-64 -15,-131 -4,-201z"/>
   <path class="fil6" d="M10320 13395c-18,-2 -36,-4 -55,-7 28,75 26,155 -3,215 16,-1 36,-3 59,-4 11,-3 15,-184 -1,-204z"/>
   <path class="fil8" d="M10850 13137c-266,68 -537,66 -813,0 -38,66 -40,131 0,197 276,92 547,90 813,0 31,-58 35,-122 0,-197z"/>
   <path class="fil6" d="M10850 13137c-179,46 -361,60 -545,44l0 0c-15,61 -14,143 4,213l0 0 76 6c157,8 312,-15 466,-67 31,-58 35,-122 0,-196zm-721 20c-31,-6 -62,-12 -92,-20 -38,65 -40,131 0,196 27,9 54,17 81,24 -11,-41 -33,-131 11,-201l0 0z"/>
   <path class="fil4" d="M10850 13137c-279,-85 -550,-86 -813,0 257,63 534,72 813,0z"/>
   <path class="fil10" d="M10850 13137c-113,29 -227,45 -341,50l0 0c21,65 19,145 8,212l0 1c112,-7 223,-29 334,-66 31,-58 35,-122 0,-196z"/>
   <path class="fil9" d="M10756 13158c-32,6 -64,11 -96,16l0 0c27,63 27,148 7,207 33,-6 66,-13 99,-22 19,-69 13,-140 -10,-201z"/>
  </g>
 </g>
</svg>
