<?xml version="1.0" encoding="UTF-8"?><!DOCTYPE svg PUBLIC "-//W3C//DTD SVG 1.1//EN" "http://www.w3.org/Graphics/SVG/1.1/DTD/svg11.dtd"><svg xmlns="http://www.w3.org/2000/svg" xml:space="preserve" width="210mm" height="297mm" version="1.1" style="shape-rendering:geometricPrecision; text-rendering:geometricPrecision; image-rendering:optimizeQuality; fill-rule:evenodd; clip-rule:evenodd" viewBox="0 0 21000 29700" xmlns:xlink="http://www.w3.org/1999/xlink">
 <defs>
  <style type="text/css">
   <![CDATA[
    .str6 {stroke:#221236;stroke-width:20;stroke-linejoin:round;stroke-opacity:0.301961}
    .str7 {stroke:white;stroke-width:20;stroke-linejoin:round;stroke-opacity:0.400000}
    .str1 {stroke:#221236;stroke-width:20;stroke-linejoin:round;stroke-opacity:0.501961}
    .str0 {stroke:#221236;stroke-width:20;stroke-linejoin:round;stroke-opacity:0.600000}
    .str8 {stroke:#221236;stroke-width:20;stroke-opacity:0.701961}
    .str4 {stroke:#221236;stroke-width:20;stroke-linejoin:round;stroke-opacity:0.701961}
    .str2 {stroke:white;stroke-width:20;stroke-linejoin:round;stroke-opacity:0.701961}
    .str5 {stroke:#221236;stroke-width:20;stroke-linejoin:round;stroke-opacity:0.800000}
    .str3 {stroke:white;stroke-width:20;stroke-linejoin:round;stroke-opacity:0.800000}
    .fil4 {fill:#E79074}
    .fil7 {fill:#221236;fill-opacity:0.301961}
    .fil8 {fill:white;fill-opacity:0.400000}
    .fil1 {fill:#221236;fill-opacity:0.501961}
    .fil0 {fill:#221236;fill-opacity:0.600000}
    .fil5 {fill:#221236;fill-opacity:0.701961}
    .fil9 {fill:white;fill-opacity:0.701961}
    .fil2 {fill:white;fill-opacity:0.701961}
    .fil6 {fill:#221236;fill-opacity:0.800000}
    .fil3 {fill:white;fill-opacity:0.800000}
   ]]>
  </style>
 </defs>
 <g id="Слой_x0020_1">
  <metadata id="CorelCorpID_0Corel-Layer"/>
  <g id="_956759152">
   <path class="fil0 str0" d="M10040 11740c-257,151 -512,671 -537,1000 -25,330 237,1558 483,1435 193,-97 272,-206 284,-220 127,21 415,81 524,41 109,-40 452,-311 450,-559 -2,-247 -267,-1294 -422,-1514 -155,-220 -606,-287 -782,-184z"/>
   <path class="fil1 str1" d="M9949 11806c-224,202 -426,642 -448,933 -25,330 237,1558 483,1435 124,-62 201,-129 243,-173l0 0c8,-9 16,-18 26,-28 8,-9 13,-16 15,-18l1 0c90,-97 222,-245 225,-440 3,-237 -340,-1538 -545,-1708l-1 -1z"/>
   <path class="fil2 str2" d="M9956 12021c79,16 438,1307 385,1425 -53,118 -321,424 -479,455 -158,31 -335,-1029 -302,-1224 33,-195 289,-678 396,-657z"/>
   <path class="fil3 str3" d="M10168 11797c51,136 424,1487 458,1580 34,93 460,136 553,69 93,-68 -204,-1202 -386,-1505 -65,-108 -651,-213 -624,-143z"/>
   <path class="fil4" d="M9765 12330c65,-99 189,-304 330,-373 141,-69 342,-19 438,-3l17 59c-55,-8 -293,-56 -410,1 -158,77 -264,245 -359,387l-16 -70z"/>
   <path class="fil4" d="M9797 12476c65,-99 189,-304 330,-373 141,-69 350,-21 446,-5l18 62c-55,-8 -303,-58 -420,-1 -158,77 -264,245 -359,387l-16 -70z"/>
   <path class="fil4" d="M9830 12621c65,-99 189,-304 330,-373 141,-69 359,-22 455,-5l18 63c-55,-8 -312,-48 -429,9 -158,77 -264,234 -359,376l-16 -70z"/>
   <path class="fil4" d="M9861 12762c65,-99 193,-294 334,-363 141,-69 363,-35 459,-18l-63 62c-55,-8 -233,-31 -351,23 -160,73 -268,225 -363,367l-16 -70z"/>
   <path class="fil4" d="M9892 12901c65,-99 200,-280 340,-350 132,-65 270,-53 367,-36l119 91c-55,-8 -316,-35 -435,19 -160,73 -281,204 -376,346l-16 -70z"/>
   <path class="fil4" d="M9927 13061c65,-99 200,-280 340,-350 132,-65 376,-42 473,-25l23 80c-55,-8 -326,-35 -444,19 -160,73 -281,204 -376,346l-16 -70z"/>
   <path class="fil4" d="M9962 13219c65,-99 202,-266 343,-335 132,-65 383,-57 480,-40l24 85c-55,-8 -335,-29 -453,25 -160,73 -283,193 -378,335l-16 -70z"/>
   <path class="fil4" d="M9999 13383c65,-99 204,-258 345,-328 132,-65 391,-64 488,-47l25 90c-55,-8 -344,-25 -462,29 -160,73 -286,184 -380,326l-16 -70z"/>
   <path class="fil4" d="M10620 11964l20 72c77,12 149,33 216,62l-25 -64c-68,-31 -139,-52 -211,-69z"/>
   <path class="fil4" d="M10660 12105l20 72c77,12 159,36 226,65l-21 -63c-68,-31 -153,-57 -225,-73z"/>
   <path class="fil4" d="M10700 12247l20 72c77,12 164,37 231,66l-20 -64c-68,-31 -160,-57 -232,-74z"/>
   <path class="fil4" d="M10829 12704l20 72c77,12 161,36 228,65l-20 -80c-68,-31 -166,-50 -228,-56z"/>
   <path class="fil4" d="M10873 12859l22 77c77,12 154,32 220,62l-19 -78c-68,-31 -162,-54 -224,-60z"/>
   <path class="fil4" d="M10920 13023l22 77c77,12 141,26 208,55l-17 -81c-68,-31 -151,-44 -213,-51z"/>
   <path class="fil4" d="M10741 12392l121 86c46,14 88,28 132,49l-19 -67c-68,-31 -161,-51 -233,-68z"/>
   <path class="fil4" d="M10905 12571l-99 50c71,12 187,43 230,59l-21 -78c-25,-12 -71,-22 -110,-30z"/>
   <path class="fil4" d="M9709 12428c-65,86 -149,250 -185,344l3 84c47,-116 139,-277 196,-365l-14 -63z"/>
   <path class="fil4" d="M9739 12564c-65,86 -169,273 -205,367l8 73c47,-116 154,-289 211,-377l-14 -63z"/>
   <path class="fil4" d="M9768 12694c-65,86 -175,283 -211,377l8 73c47,-116 160,-299 217,-387l-14 -63z"/>
   <path class="fil4" d="M9798 12831c-65,86 -184,292 -220,386l12 62c47,-116 165,-297 222,-386l-14 -63z"/>
   <path class="fil4" d="M9833 12987c-65,86 -190,276 -226,370l12 62c47,-116 170,-281 227,-370l-14 -63z"/>
   <path class="fil4" d="M9864 13128c-65,86 -190,276 -226,370l12 62c47,-116 170,-281 227,-370l-14 -63z"/>
   <path class="fil4" d="M9900 13291c-65,86 -184,228 -228,343l15 55c48,-106 184,-275 227,-334l-14 -63z"/>
   <path class="fil4" d="M9935 13446c-65,86 -174,221 -218,336l19 47c48,-106 177,-261 215,-310l-16 -73z"/>
   <path class="fil4" d="M10286 11717c54,85 74,138 122,139 47,1 -31,-87 -61,-134 -19,-3 -38,-5 -60,-4z"/>
   <path class="fil4" d="M10397 11726c54,85 90,151 115,152 43,1 -38,-96 -68,-143 -19,-3 -26,-6 -46,-9z"/>
   <path class="fil4" d="M10492 11748c54,85 98,155 119,156 43,2 -36,-92 -66,-140 -15,-5 -30,-10 -53,-17z"/>
   <path class="fil4" d="M10600 11787c54,85 93,145 114,146 43,2 -34,-90 -59,-119 -12,-8 -33,-18 -55,-27z"/>
   <path class="fil4" d="M10149 11728c49,77 60,110 114,111 64,1 -8,-97 -25,-122 -17,-1 -70,5 -90,12z"/>
   <path class="fil4" d="M10706 13643c-75,152 -184,253 -246,316 25,6 35,8 52,9 73,-77 225,-224 257,-339 27,-97 49,-349 29,-410 -11,-24 -61,-21 -59,-2 10,98 1,357 -33,426z"/>
   <path class="fil4" d="M10831 13639c-77,159 -223,296 -263,336 25,6 31,7 48,8 73,-77 237,-239 269,-354 27,-97 43,-338 23,-399 -15,-35 -54,-28 -52,-8 10,98 10,348 -24,418z"/>
   <path class="fil4" d="M10929 13652c-77,159 -230,293 -270,333 10,1 25,1 41,1 73,-77 249,-234 281,-349 27,-97 45,-334 25,-395 -15,-35 -54,-28 -52,-8 10,98 10,349 -24,418z"/>
   <path class="fil4" d="M11031 13652c-77,159 -248,293 -288,333 83,-24 314,-273 339,-347 32,-96 47,-315 26,-376 -15,-35 -54,-28 -52,-8 10,98 8,329 -25,399z"/>
   <path class="fil4" d="M11121 13630c-77,159 -191,242 -231,280 83,-57 251,-224 276,-298 32,-96 59,-256 39,-317 -15,-35 -54,-28 -52,-8 10,98 3,274 -31,343z"/>
   <path class="fil4" d="M10544 13633c-73,154 -129,198 -214,292 25,6 63,18 80,18 61,-53 212,-207 245,-321 27,-97 41,-332 20,-393 -11,-24 -81,-23 -79,6 7,99 -25,341 -51,398z"/>
   <path class="fil5 str4" d="M9985 14175c69,179 100,415 204,475 21,12 45,16 70,14 84,-27 135,-147 136,-268 1,-121 -84,-345 -125,-440 -92,101 -158,153 -284,220 0,0 -1,0 -1,1z"/>
   <path class="fil6 str5" d="M10259 14664c97,-9 210,-111 236,-170 34,-74 -5,-270 -40,-405l204 21 134 -114c-109,40 -396,-20 -523,-41 41,95 126,319 125,440 -1,121 -52,241 -136,268z"/>
   <path class="fil3 str3" d="M10683 12431c27,-23 77,-8 111,32 34,41 40,92 13,115 -27,23 -77,8 -111,-32 -34,-41 -40,-92 -13,-115z"/>
   <path class="fil0 str0" d="M10235 14231c66,0 119,77 119,172 0,95 -53,172 -119,172 -66,0 -119,-77 -119,-172 0,-95 53,-172 119,-172z"/>
   <ellipse class="fil4" cx="10225" cy="14403" rx="43" ry="70"/>
   <path class="fil0 str0" d="M10794 13996c-18,134 57,292 43,434 -8,79 -49,129 -103,194 -1,-190 27,-402 -74,-515l134 -114z"/>
   <path class="fil4" d="M10639 17149c527,21 935,158 935,324 0,180 -481,326 -1074,326 -593,0 -1074,-146 -1074,-326 0,-164 398,-300 916,-323l0 341c99,31 198,29 298,0l0 -342z"/>
   <path class="fil0 str0" d="M10347 17796c74,6 149,6 224,3 560,-11 1003,-153 1003,-326l0 281c-409,350 -1792,323 -2149,0l0 -281c0,165 401,301 923,323z"/>
   <path class="fil7 str6" d="M10347 17796c74,6 149,6 224,3 560,-11 1003,-153 1003,-326l0 281c-300,257 -1125,311 -1684,193l0 -206c134,28 289,47 457,54zm-754 61c-69,-30 -126,-64 -169,-103l0 -281c0,65 62,125 169,176l0 209z"/>
   <path class="fil7 str6" d="M10482 17801c29,0 59,-1 88,-2 560,-11 1003,-153 1003,-326l0 281c-204,174 -650,255 -1091,252l0 -206zm-938 33c-47,-24 -88,-51 -120,-80l0 -281c0,54 43,105 120,150l0 211z"/>
   <path class="fil7 str6" d="M10759 17790c468,-35 814,-164 814,-317l0 281c-161,138 -473,217 -814,243l0 -208zm-1251 25c-32,-19 -60,-39 -84,-60l0 -281c0,45 30,88 84,127l0 215z"/>
   <path class="fil8 str7" d="M11052 17755c312,-57 521,-161 521,-280l0 281c-113,97 -301,165 -521,206l0 -207z"/>
   <path class="fil9 str2" d="M11256 17704c85,-26 156,-56 209,-89l0 211c-60,33 -131,61 -209,84l0 -207z"/>
   <path class="fil1 str1" d="M10681 14260l45 0c4,23 7,47 9,72l0 266c0,9 0,18 0,27l0 1287c-17,7 -37,12 -53,17l0 -1668z"/>
   <path class="fil1 str1" d="M10493 14260c16,95 23,187 2,233 -8,17 -22,37 -41,58l0 1400c-19,-1 -43,-1 -74,-3l0 -1334c-18,12 -37,23 -57,31 -21,9 -43,15 -64,17l0 0c-12,1 -24,1 -35,-1l-2 417c-1,105 -182,304 -183,456 -1,90 -1,192 -1,319 26,17 56,32 89,44 1,-119 -4,-315 15,-385 38,-141 94,-222 114,-424 4,204 -61,314 -77,474 -11,110 -3,240 -3,352 46,13 97,23 148,29l0 0c89,11 176,12 262,2 13,-1 29,-3 46,-6l0 0c17,-3 33,-6 49,-10l-1 0 1 0 0 0 0 0c20,-5 37,-10 53,-17l0 -1287c0,-9 0,-18 0,-27l0 -266c-6,-88 -25,-167 -74,-223l-204 -21c13,52 27,112 37,172zm138 1678l0 0 1 0 0 0 0 0 1 0 0 0 0 0 1 0 1 0 0 0 1 0 1 0 0 0 1 0 1 0 0 0 1 0 1 0 0 0 1 0 1 0 0 0 1 0 1 0 0 0 0 0 1 0 0 0 0 0 1 0 0 0 0 0 1 0 1 0 0 0 1 0 1 0 0 0 1 0 1 0 0 0 1 0 1 0 0 0 1 0 1 0 0 0 1 0 1 0 0 0 0 0 1 0 0 0 0 0 1 0 1 0 0 0 1 0 1 0 0 0 1 0 1 0 0 0 1 0 1 0 0 0 2 0 0 0 1 0 1 0 0 0 1 0 1 0 0 0 0 0 1 0 0 0 0 0 1 0 1 0 0 0 1 0 1 0 0 0 1 0 1 0 0 0 1 0 1 0 0 0 1 0"/>
   <path class="fil1 str1" d="M10681 14260l-95 0 -92 0c16,95 23,187 2,233 -8,17 -22,37 -41,58l0 1400c-19,-1 -43,-1 -74,-3l0 -1334c-18,12 -37,23 -57,31l0 1298c89,11 176,12 262,2 25,-1 58,-9 95,-16l0 -1668z"/>
   <path class="fil3 str3" d="M10681 14260l-95 0 0 1685c25,-1 58,-9 95,-16l0 -1668z"/>
   <path class="fil1 str1" d="M10256 15089c4,204 -61,314 -77,474 -11,117 -2,235 -3,352 -17,-5 -34,-11 -49,-18 2,-116 -5,-309 15,-383 38,-141 94,-222 114,-424z"/>
   <path class="fil1 str1" d="M10454 14551l0 1400c-19,-1 -43,-1 -74,-3l0 -1334c28,-19 54,-41 74,-63z"/>
   <path class="fil5 str8" d="M10323 15944l0 -1298c-21,9 -43,15 -64,17l0 0c-12,1 -24,1 -35,-1l-2 417c-1,105 -182,304 -183,456 -1,90 -1,192 -1,319 26,17 56,32 89,44 0,-1 0,-2 0,-2 0,-4 0,-8 0,-13 0,-49 0,-109 0,-168 1,-66 3,-130 9,-174 2,-11 3,-21 6,-29 38,-141 94,-222 114,-424 4,204 -61,314 -77,474 -11,110 -3,240 -3,352 46,13 97,23 148,29z"/>
   <path class="fil0 str0" d="M10341 16019l0 0c95,20 194,19 298,1l0 1471c-99,29 -198,31 -298,0l0 -1473z"/>
   <path class="fil1 str1" d="M10639 16020l0 1471c-47,16 -96,24 -149,22l0 -1480c49,1 98,-3 149,-13z"/>
   <path class="fil0 str0" d="M10407 16029l0 1478c-30,-6 -52,-12 -66,-16l0 -1473c22,5 44,8 66,10z"/>
   <path class="fil5 str4" d="M10565 16030l0 1478c18,0 44,-7 73,-17l0 -1471c-25,4 -49,8 -73,10z"/>
   <path class="fil4" d="M10298 16008c126,35 258,32 398,0l0 -84c-101,28 -255,36 -398,15l0 68z"/>
  </g>
 </g>
</svg>
