<?xml version="1.0" encoding="UTF-8"?><!DOCTYPE svg PUBLIC "-//W3C//DTD SVG 1.1//EN" "http://www.w3.org/Graphics/SVG/1.1/DTD/svg11.dtd"><svg xmlns="http://www.w3.org/2000/svg" xml:space="preserve" width="210mm" height="297mm" version="1.1" style="shape-rendering:geometricPrecision; text-rendering:geometricPrecision; image-rendering:optimizeQuality; fill-rule:evenodd; clip-rule:evenodd" viewBox="0 0 21000 29700" xmlns:xlink="http://www.w3.org/1999/xlink">
 <defs>
  <style type="text/css">
   <![CDATA[
    .str3 {stroke:white;stroke-width:100;stroke-linejoin:round;stroke-opacity:0.501961}
    .str1 {stroke:white;stroke-width:100;stroke-linejoin:round;stroke-opacity:0.701961}
    .str2 {stroke:white;stroke-width:100;stroke-linejoin:round;stroke-opacity:0.800000}
    .str0 {stroke:white;stroke-width:100;stroke-linejoin:round;stroke-opacity:0.901961}
    .str4 {stroke:#E79074;stroke-width:100;stroke-linejoin:round}
    .fil5 {fill:#E79074}
    .fil3 {fill:#221236;fill-opacity:0.501961}
    .fil4 {fill:white;fill-opacity:0.501961}
    .fil1 {fill:#221236;fill-opacity:0.701961}
    .fil2 {fill:#221236;fill-opacity:0.800000}
    .fil0 {fill:#221236;fill-opacity:0.901961}
   ]]>
  </style>
 </defs>
 <g id="Слой_x0020_1">
  <metadata id="CorelCorpID_0Corel-Layer"/>
  <g id="_839933120">
   <polygon class="fil0 str0" points="10510,12210 8910,14210 12110,14210 "/>
   <polygon class="fil1 str1" points="10510,12210 8910,14210 7510,14210 "/>
   <polygon class="fil2 str2" points="10510,12210 12110,14210 13510,14210 "/>
   <path class="fil3 str3" d="M8110 14510l2 0c165,0 298,134 299,298 1,-164 134,-298 298,-298l2 0c-172,649 -673,1500 -1000,1700l0 200c150,245 340,538 400,1100l-600 0 0 -3000c165,0 299,133 300,298 1,-165 134,-298 299,-298z"/>
   <path class="fil3 str3" d="M12911 14510l-2 0c-165,0 -298,134 -299,298 -1,-164 -134,-298 -298,-298l-2 0c172,649 673,1500 1000,1700l0 200c-150,245 -340,538 -400,1100l600 0 0 -3000c-165,0 -299,133 -300,298 -1,-165 -134,-298 -299,-298z"/>
   <path class="fil3 str3" d="M11110 17510c-60,-562 -250,-855 -400,-1100l0 -200c327,-200 828,-1051 1000,-1700 -165,0 -299,133 -300,298 -1,-165 -134,-298 -299,-298 -165,-2 -300,135 -301,298 -1,-165 -135,-298 -300,-298 -165,0 -299,133 -300,298 -1,-165 -134,-298 -299,-298 -166,2 -300,131 -301,298 -1,-165 -135,-298 -300,-298 172,649 673,1500 1000,1700l0 200c-150,245 -340,538 -400,1100l1200 0z"/>
   <path class="fil3 str3" d="M8304 14581c-51,449 -220,1007 -594,1629l-100 0c119,-456 190,-927 201,-1419 10,-157 140,-281 299,-281 74,0 141,27 194,71z"/>
   <path class="fil3 str3" d="M11304 14581c-51,449 -220,1007 -594,1629l-100 0c119,-456 190,-927 201,-1419 10,-157 140,-281 299,-281 74,0 141,27 194,71z"/>
   <path class="fil4 str3" d="M12717 14581c51,449 220,1007 594,1629l100 0c-119,-456 -190,-927 -201,-1419 -10,-157 -140,-281 -299,-281 -74,0 -141,27 -194,71z"/>
   <path class="fil3 str3" d="M9717 14581c51,449 220,1007 594,1629l100 0c-119,-456 -190,-927 -201,-1419 -10,-157 -140,-281 -299,-281 -74,0 -141,27 -194,71z"/>
   <path class="fil3 str3" d="M7610 16410c33,0 67,0 100,0 129,388 203,757 200,1100l-200 0c7,-340 -28,-707 -100,-1100z"/>
   <path class="fil3 str3" d="M10610 16410c33,0 67,0 100,0 129,388 203,757 200,1100l-200 0c7,-340 -28,-707 -100,-1100z"/>
   <path class="fil3 str3" d="M13410 16410c-33,0 -67,0 -100,0 -129,388 -203,757 -200,1100l200 0c-7,-340 28,-707 100,-1100z"/>
   <path class="fil3 str3" d="M10410 16410c-33,0 -67,0 -100,0 -129,388 -203,757 -200,1100l200 0c-7,-340 28,-707 100,-1100z"/>
   <path class="fil3 str3" d="M7510 14510l0 0c165,0 299,133 300,298 0,-6 0,-12 1,-17 -11,492 -82,963 -201,1419l-100 0 0 -1700z"/>
   <path class="fil2 str2" d="M10510 14510l0 0c165,0 299,133 300,298 0,-6 0,-12 1,-17 -11,492 -82,963 -201,1419l-100 0 -100 0c-119,-456 -190,-927 -201,-1419 0,6 1,12 1,17 1,-165 135,-298 300,-298l0 0z"/>
   <path class="fil3 str3" d="M13510 14510l0 0c-165,0 -299,133 -300,298 0,-6 0,-12 -1,-17 11,492 82,963 201,1419l100 0 0 -1700z"/>
   <path class="fil3 str3" d="M7510 16410c33,0 67,0 100,0 72,393 107,760 100,1100l-200 0 0 -1100z"/>
   <path class="fil2 str2" d="M10510 16410c33,0 67,0 100,0 72,393 107,760 100,1100l-200 0 -200 0c-7,-340 28,-707 100,-1100 33,0 67,0 100,0z"/>
   <path class="fil3 str3" d="M13510 16410c-33,0 -67,0 -100,0 -72,393 -107,760 -100,1100l200 0 0 -1100z"/>
   <polygon class="fil5 str4" points="10310,16210 10510,16210 10710,16210 10710,16410 10510,16410 10310,16410 "/>
   <polygon class="fil5 str4" points="7710,16210 7510,16210 7510,16410 7710,16410 "/>
   <polygon class="fil5 str4" points="13310,16210 13510,16210 13510,16410 13310,16410 "/>
   <path class="fil5" d="M7510 14210l6000 0 0 300 0 0c-165,0 -299,133 -300,298 -1,-165 -135,-298 -300,-298 -165,0 -299,133 -300,298 -1,-165 -135,-298 -300,-298 -165,0 -299,133 -300,298 -1,-165 -135,-298 -300,-298 -165,0 -299,133 -300,298 -1,-165 -135,-298 -300,-298 -165,0 -299,133 -300,298 -1,-165 -135,-298 -300,-298 -165,0 -299,133 -300,298 -1,-165 -135,-298 -300,-298 -165,0 -299,133 -300,298 -1,-165 -135,-298 -300,-298 -165,0 -299,133 -300,298 -1,-165 -135,-298 -300,-298 -165,0 -299,133 -300,298 -1,-165 -135,-298 -300,-298 -165,0 -299,133 -300,298 -1,-165 -135,-298 -300,-298l0 0 0 -300z"/>
  </g>
 </g>
</svg>
