<?xml version="1.0" encoding="UTF-8"?><!DOCTYPE svg PUBLIC "-//W3C//DTD SVG 1.1//EN" "http://www.w3.org/Graphics/SVG/1.1/DTD/svg11.dtd"><svg xmlns="http://www.w3.org/2000/svg" xmlns:xlink="http://www.w3.org/1999/xlink"><defs>
        <path id="SVGID_1_" d="M0 0h373v370H0z"/>
    </defs><symbol id="icon-duration" viewBox="0 0 373 370">
    <style>
        .st0,.st1,.st2{fill:#0d0d0d}.st1,.st2{clip-path:url(#SVGID_2_)}.st2{clip-path:url(#SVGID_4_)}
    </style>
    <path class="st0" d="M223.7 337.6c-3.1.8-6.2 1.4-9.3 2-8.1 1.5-13.5 9.3-12 17.4.7 4 3 7.3 6.1 9.5 3.2 2.2 7.2 3.2 11.3 2.5 3.7-.7 7.4-1.5 11.1-2.4 8-2 12.9-10.1 10.9-18.1-2-8-10.1-12.9-18.1-10.9zm0 0"/>
    <path class="st0" d="M334.3 137.1c1 3.2 3.1 5.7 5.6 7.5 3.7 2.6 8.6 3.5 13.3 2 7.8-2.6 12.1-11.1 9.5-18.9-1.2-3.6-2.5-7.2-3.9-10.6-3.1-7.7-11.8-11.4-19.4-8.3-7.7 3.1-11.4 11.8-8.3 19.4 1.1 2.9 2.2 5.9 3.2 8.9zm0 0"/>
    <path class="st0" d="M272.3 316.3c-2.6 1.7-5.4 3.4-8.1 5-7.2 4.1-9.6 13.3-5.5 20.4 1.1 1.9 2.6 3.5 4.3 4.8 4.6 3.2 10.9 3.7 16.1.7 3.3-1.9 6.5-3.9 9.6-6 6.9-4.6 8.8-13.8 4.2-20.7-4.4-6.9-13.7-8.8-20.6-4.2zm0 0"/>
    <path class="st0" d="M372 178.9c-.3-8.3-7.3-14.7-15.5-14.4-8.3.3-14.7 7.3-14.4 15.5.1 3.2.2 6.4.1 9.5-.1 5.2 2.4 9.8 6.4 12.6 2.3 1.7 5.2 2.7 8.3 2.7 8.3.2 15.1-6.4 15.3-14.6 0-3.7 0-7.6-.2-11.3zm0 0"/>
    <path class="st0" d="M331.9 276.9c-6.6-5-16-3.6-20.9 3-1.9 2.5-3.9 5-5.9 7.4-5.4 6.3-4.6 15.7 1.7 21.1.4.3.7.6 1.1.8 6.3 4.4 14.9 3.4 20-2.5 2.4-2.9 4.8-5.9 7.1-8.9 4.8-6.6 3.5-15.9-3.1-20.9zm0 0"/>
    
    <clipPath id="SVGID_2_">
        <use xlink:href="#SVGID_1_" overflow="visible"/>
    </clipPath>
    <path class="st1" d="M353.9 222.8c-7.9-2.5-16.3 1.9-18.8 9.8-.9 3-2 6-3.1 9-2.5 6.5-.1 13.7 5.4 17.6 1 .7 2.1 1.3 3.3 1.7 7.7 2.9 16.4-.9 19.3-8.6 1.3-3.5 2.6-7.1 3.7-10.7 2.4-7.9-2-16.3-9.8-18.8zm0 0"/>
    <path class="st1" d="M158.4 339.8c-13.4-2.4-26.2-6.5-38.4-12.2-.1-.1-.3-.2-.4-.2-2.9-1.4-5.7-2.8-8.5-4.3-5.1-2.8-10.1-5.9-14.9-9.3C25.8 264.1 8.9 166.5 58.4 96.2 69.2 80.9 82.3 68.1 96.8 58c.2-.1.4-.2.5-.4 51.3-35.3 120.8-37.7 175.3-1.4l-11.7 16.9c-3.2 4.7-1.3 8.1 4.4 7.6l50.8-4.5c5.7-.5 9.1-5.4 7.6-10.9l-13.6-49.1c-1.5-5.5-5.4-6.2-8.7-1.5l-11.7 16.9c-39.9-26.8-87.8-37-135.4-28.8-4.8.8-9.5 1.8-14.2 3h-.1c-.2 0-.4.1-.5.1-41 10.5-76.8 34.4-102.3 68.6-.2.3-.4.5-.6.8-.8 1.1-1.7 2.3-2.5 3.5-1.3 1.9-2.7 3.9-3.9 5.8-.2.2-.3.5-.4.7C8.6 118-1.6 155.7.2 194.2v.4c.2 3.8.5 7.6.9 11.3 0 .2.1.5.1.7.4 3.8.9 7.5 1.6 11.3 6.7 38.5 24.8 73.1 52 100.1l.2.2.1.1c7.3 7.2 15.3 13.9 23.8 19.9 22.4 15.8 47.4 26.2 74.2 31 8.1 1.5 15.9-4 17.4-12.1 1.4-8.1-4-15.9-12.1-17.3zm0 0"/>
    <path class="st0" d="M176.9 65.2c-6.7 0-12.1 5.4-12.1 12.1v120.6l110.3 57c1.8.9 3.7 1.4 5.5 1.4 4.4 0 8.6-2.4 10.8-6.6 3.1-5.9.7-13.2-5.2-16.3L189 183.2V77.3c0-6.7-5.4-12.1-12.1-12.1zm0 0"/>
</symbol><symbol id="icon-island" viewBox="0 0 485.7 512">
    <path d="M484.4 151c-15.4-23.2-34.2-35.9-54.5-36.5-14.5-.5-27.3 5.3-38 13.3 1.6-13.4.2-27.3-7.5-39.6-10.8-17.2-31.1-27.2-59-28.9-3.5-.2-6.8 1.9-8.1 5.2-1.3 3.3-.3 7 2.4 9.3.2.2 16.2 13.6 31 41.3-11.1-7.7-23.6-12.5-37-14.1-24.5-2.9-49.7 6.1-64.4 22.7-2.1 2.3-2.6 5.6-1.4 8.5s3.9 4.8 7 5c.4 0 29.6 1.9 64.6 9.8-.6.3-1.1.5-1.7.8-17.4 8.6-29.2 25.6-35.1 50.6-.7 3.1.4 6.4 2.9 8.3 1.5 1.1 3.2 1.7 5 1.7 1.3 0 2.6-.3 3.8-.9l38.9-20.3c-19.8 26.9-46.2 72.5-63.1 140.8-1.1 4.4 1.6 8.8 6 9.9.7.2 1.3.2 2 .2 3.7 0 7-2.5 7.9-6.2 14.7-59.3 37-100.4 53-124.4 12.9-19.2 23.9-30.9 28.9-35.7l.5 12.4c-4.9 5.4-20.6 24.4-37 59.8-17.1 37.2-38.2 100.7-42.3 192.8-6.3-.6-12.7-1-19.1-1.3-6.1-116.5-38.7-196.6-65.2-243.6-10.7-19-21.2-34.2-30.4-45.9l51.2 26.7c1.2.6 2.5.9 3.8.9 1.8 0 3.5-.6 5-1.7 2.5-2 3.7-5.2 2.9-8.3-6.9-29.1-20.6-48.9-40.8-58.9-2.1-1-4.2-1.9-6.3-2.7 43.6-10.3 80.8-12.7 81.3-12.7 3.1-.2 5.8-2.1 7-5 1.2-2.9.7-6.2-1.4-8.5-17-19.4-46.4-29.7-75-26.4-17.7 2.1-34.1 9-48.3 20.2 18.4-36.8 39.7-54.8 40-55.1 2.7-2.2 3.7-6 2.4-9.3-1.3-3.3-4.6-5.4-8.1-5.2-32.2 2-55.9 13.6-68.4 33.6-9.5 15.3-10.7 32.9-8.1 49.6-13.1-10.6-29-18.3-47-17.8-23.5.7-45.4 15.5-63.4 42.6-1.9 2.9-1.8 6.8.4 9.6s5.9 3.8 9.2 2.6c.4-.1 26.7-9.6 67.7-7.1-16.8 6.7-31 17.4-41.6 31.7-17.1 23-22.9 53.7-14.6 78.1 1 2.9 3.6 5.1 6.7 5.5.4 0 .7.1 1.1.1 2.7 0 5.3-1.4 6.8-3.7.3-.4 20.9-31.4 51.7-64.1-.4 2.2-.7 4.5-.8 6.8-1.5 22.5 8.8 44.3 30.6 64.8 1.5 1.5 3.6 2.2 5.6 2.2 1 0 2.1-.2 3.1-.6 3-1.2 4.9-4 5.1-7.2l2.6-59.2c24.2 30.8 76.8 114.5 84.5 268-36.1 1.9-70.3 7.6-100.2 16.8-37 11.4-64.7 27.5-80.2 46.3-2 2.4-2.4 5.8-1.1 8.7 1.3 2.9 4.2 4.7 7.4 4.7h400c3.2 0 6-1.8 7.4-4.7 1.3-2.9.9-6.2-1.1-8.7-16.9-20.6-49.2-38.1-91.1-49.5-4.3-1.2-8.8 1.4-10 5.7-1.2 4.3 1.4 8.8 5.7 10 28.7 7.8 52.3 18.5 68.6 30.8H65.6c14.3-10.8 34.3-20.4 58.2-27.8 35.4-11 77.4-16.8 121.3-16.8 26.6 0 52.4 2.1 76.9 6.3 4.4.8 8.7-2.2 9.4-6.7s-2.2-8.7-6.7-9.4c-6.3-1.1-12.7-2-19.1-2.8 3.8-89.5 24-150.8 40.4-186.8 8.6-18.9 17.1-32.9 23.7-42.4l1.8 42.6c.1 3.2 2.1 6 5.1 7.2 1 .4 2 .6 3.1.6 2 0 4.1-.8 5.6-2.2 18.7-17.6 27.5-36.3 26.2-55.7 0-.6-.1-1.2-.2-1.9 24.4 26.3 40.6 50.7 40.8 51 1.5 2.3 4.1 3.7 6.8 3.7.3 0 .7 0 1.1-.1 3.1-.4 5.7-2.5 6.7-5.5 7.1-21 2.2-47.3-12.5-67.1-8.1-10.8-18.5-19.2-30.7-25 9.4-.3 17.6.1 24.2.8 16.9 1.7 27 5.4 27.1 5.4 3.3 1.2 7 .2 9.2-2.6 2.1-2.6 2.3-6.4.4-9.4zm-268.8-2l-64.9-33.8c11.1-1.9 25.6-2.3 38.7 4.1 11.3 5.6 20.1 15.5 26.2 29.7zm-11.3-83.4c3-.3 5.9-.5 8.9-.5 13.5 0 26.7 3.5 37.6 9.8-22.9 2.6-62.2 8.7-101 21.7 14.7-17.8 33.5-28.6 54.5-31zm-70.6-23.4c6.6-10.5 17.7-18.1 32.8-22.3-11.4 13.9-26.2 35.9-37.6 66.6-3.9-17.8-2.3-32.9 4.8-44.3zm-68.9 54c-13.9 0-25.8 1.2-35.2 2.8 11.2-11 23.3-16.9 35.7-17.3 13.5-.4 27.3 5.7 40.8 18-15.2-2.5-29.1-3.5-41.3-3.5zM35 199.4c-.1-15.3 5.3-31.6 15.2-44.9 12.6-16.9 31.4-27.8 54.1-31.7-30.7 27.1-55.6 58.1-69.3 76.6zm81.8 6.7c-9.2-12.4-13.4-24.9-12.6-37.4.9-14.5 8.5-26.9 15.8-35.6l-3.2 73zm118.7 228.8c-5.3-106.3-31.8-179.4-53.4-222.4-20.3-40.4-39.9-62.3-46.3-68.8l.7-15.4c10 8.6 32.9 33.6 54.7 72.5 25.3 45.2 56.4 122.1 62.7 234.1-2.9 0-5.9-.1-8.8-.1-3.2 0-6.4.1-9.6.1zm135-338.1c5.2 8.4 6.8 19.4 4.7 32.2-8.6-21.7-19.1-38-27.8-49.2 9.2 3.2 17.7 8.4 23.1 17zm-58.6 20.4c16 1.9 30.4 9.6 42.2 22.2-29.3-9.3-58.3-14.1-77.1-16.4 10.2-5.1 22.6-7.3 34.9-5.8zm13.1 45.3c6.7-3.3 13.8-4.4 20.5-4.4 2.6 0 5.2.2 7.6.5l-47.9 25c4.9-10 11.5-17 19.8-21.1zm62 68.2l-2.3-54.1c5.1 6.9 9.9 15.9 10.6 26.3.5 9.3-2.2 18.6-8.3 27.8zm54.1-39c7.4 9.9 11.7 21.7 12.4 33.2-11.4-15.1-30.1-37.9-52.8-58.6 16.8 3.9 30.8 12.5 40.4 25.4zm-42-48.9c9.7-7.9 19.6-12 29.2-12h1.1c10.2.3 19 5.1 26.3 11.5-14.1-2-33.5-2.9-56.6.5z"/>
</symbol><symbol id="icon-location" viewBox="0 0 414.2 512">
    <path d="M207.1 512c-5.2 0-10.2-2.3-13.6-6.3L43.1 329.1c-13.5-15.7-23.6-32.4-30-49.5-23.8-63-14.8-134.3 24.1-190.6 39.1-56.6 101-89 169.9-89s130.9 32.5 170 89c38.9 56.3 47.9 127.5 24 190.6-6.3 17.1-16.4 33.7-30 49.5L220.7 505.7c-3.4 4-8.3 6.3-13.6 6.3zm0-476.2c-57 0-108.2 26.8-140.5 73.6C34.4 156 26.9 214.9 46.6 267c4.9 13.3 12.9 26.3 23.7 38.8l136.8 160.7 136.7-160.6.1-.1c10.8-12.5 18.7-25.5 23.6-38.7 19.7-52.2 12.3-111.1-20-157.7-32.2-46.8-83.4-73.6-140.4-73.6z"/>
    <path d="M207.1 306.7c-55.3 0-100.3-45-100.3-100.3s45-100.3 100.3-100.3 100.3 45 100.3 100.3c0 55.4-45 100.3-100.3 100.3zm0-164.7c-35.5 0-64.4 28.9-64.4 64.4s28.9 64.4 64.4 64.4 64.4-28.9 64.4-64.4-28.8-64.4-64.4-64.4z"/>
</symbol><symbol id="icon-meal" viewBox="0 0 48 43.4">
    <path d="M14.7 14.3c.2.2.4.2.6.2.2 0 .4-.1.6-.2.3-.3.3-.8 0-1.1-.8-.8-.8-2.1 0-2.9.7-.7 1.1-1.6 1.1-2.6s-.4-1.9-1.1-2.6c-.3-.3-.8-.3-1.1 0-.3.3-.3.8 0 1.1.4.4.6.9.6 1.5s-.2 1.1-.6 1.5c-1.6 1.4-1.6 3.7-.1 5.1zm0 0"/>
    <path d="M32.3 14.3c.2.2.4.2.6.2.2 0 .4-.1.6-.2.3-.3.3-.8 0-1.1-.8-.8-.8-2.1 0-2.9.7-.7 1.1-1.6 1.1-2.6s-.4-1.9-1.1-2.6c-.3-.3-.8-.3-1.1 0-.3.3-.3.8 0 1.1.4.4.6.9.6 1.5s-.2 1.1-.6 1.5c-1.6 1.4-1.6 3.7-.1 5.1zm0 0"/>
    <path d="M23.5 9.5c.2.2.4.2.6.2.2 0 .4-.1.6-.2.3-.3.3-.8 0-1.1-.8-.8-.8-2.1 0-2.9.7-.7 1.1-1.6 1.1-2.6S25.4 1 24.7.3c-.3-.3-.8-.3-1.1 0-.3.3-.3.8 0 1.1.4.4.6.9.6 1.5S24 4 23.6 4.4C22 5.8 22 8.1 23.5 9.5zm0 0"/>
    <path d="M20.3 20.6h.2c1.1-.3 2.3-.4 3.5-.4.4 0 .8-.4.8-.8s-.4-.8-.8-.8c-1.3 0-2.6.1-3.9.4-.4.1-.7.5-.6 1 .1.3.4.6.8.6zm0 0"/>
    <path d="M7.9 33.7H8c.4 0 .7-.3.8-.7.8-4.6 3.6-8.6 7.3-10.8.4-.2.5-.7.3-1.1-.2-.4-.7-.5-1.1-.3-4.2 2.5-7.2 6.9-8.1 11.9-.1.5.2 1 .7 1zm0 0"/>
    <path d="M44.5 32.7c-1.4-8.5-8.1-15.3-16.5-16.9v-.4c0-2.2-1.8-4-4-4s-4 1.8-4 4v.4c-8.4 1.6-15.1 8.4-16.5 16.9C1.8 33.6 0 35 0 36.6c0 4.1 12.4 6.8 24 6.8s24-2.7 24-6.8c0-1.6-1.8-3-3.5-3.9zM21.6 15.5v-.1c0-1.3 1.1-2.4 2.4-2.4 1.3 0 2.4 1.1 2.4 2.4v.1h-.1c-.3 0-.6 0-.8-.1h-2.8c-.3 0-.6 0-.8.1h-.3zm-.5 1.7c.4-.1.9-.1 1.3-.1h.3c.9-.1 1.8-.1 2.6 0h.3c.4 0 .9.1 1.3.1 8.3 1.3 14.9 7.9 16.1 16.3 0 .3.1.5.1.8v.3c0 .4.1.7.1 1.1-12.6 2.9-25.8 2.9-38.4 0 0-.4 0-.7.1-1.1v-.3c0-.3.1-.5.1-.8 1.2-8.4 7.8-15.1 16.1-16.3zM24 41.8c-13.7 0-22.4-3.4-22.4-5.2 0-.3.4-1 1.6-1.9v2l.6.1c6.6 1.6 13.4 2.4 20.2 2.4 6.8 0 13.6-.8 20.2-2.4l.6-.1v-.6-1.3-.1c1.3.9 1.6 1.6 1.6 1.9 0 1.7-8.7 5.2-22.4 5.2zm0 0"/>
</symbol><symbol id="icon-price-range" viewBox="0 0 48 43.2">
    <path d="M48 14.4c-.1-1.4-1.7-2.4-5-3.3.1-.2.2-.5.2-.7V4.8C42.9.1 23.8 0 21.6 0 19.4 0 .3.1 0 4.8v5.6c0 1.5 2 2.7 4.9 3.6 0 .1-.1.3-.1.4V20c-3.1.8-4.7 1.9-4.8 3.2v5.6c0 1.1 1 2 2.5 2.7-.1.2-.1.3-.1.5v5.6c0 2.7 6 4.3 12.7 5.1h.1c1.3.1 2.6.3 3.9.3h.1c1.6.1 3.3.1 4.8.1s3.1-.1 4.8-.1h.1l3.9-.3h.1c6.7-.8 12.6-2.4 12.7-5.1V32c-.1-1-.9-1.8-2.5-2.5.1-.2.2-.5.2-.7v-5.2c2.9-.9 4.8-2.1 4.8-3.6l-.1-5.6zm-6.5 14.7l-.3.2c-.4.4-1.1.7-2 1.1v-3.8c1-.3 1.8-.7 2.4-1.1v3.3c0 .1 0 .2-.1.3zm-17.9 3.7h-1.3v-4H23.1c.8 0 1.6 0 2.4-.1v4H25c-.4 0-.9.1-1.4.1zm-3.5 0H18.9c-.4 0-.9 0-1.3-.1v-4c.8 0 1.6.1 2.4.1H20.8v4h-.5-.2zM5.7 31s-.1-.1 0 0l-.1-3.9c.7.2 1.6.4 2.4.6v3.9c-.7-.2-1.4-.3-2-.5-.1-.1-.2-.1-.3-.1zm16.8 6.6h.7v4c-1.1 0-2.2 0-3.2-.1v-4c.8 0 1.6.1 2.4.1h.1zm3.1 0c.8 0 1.6 0 2.4-.1v4c-1 .1-2.1.1-3.2.1v-4H25.6zm6.4-.4v4c-.8.1-1.6.2-2.4.2v-4c.8 0 1.6-.1 2.4-.2zm1.6-.1l2.4-.3v3.9c-.8.1-1.6.3-2.4.4v-4zm4-.7c.8-.2 1.7-.4 2.4-.6v3.9c-.7.2-1.5.4-2.4.6v-3.9zm-27.2 0v3.9c-.9-.2-1.7-.4-2.4-.6v-3.9c.7.3 1.6.5 2.4.6zm1.6.3l2.4.3v4c-.8-.1-1.6-.2-2.4-.4v-3.9zm4 .5c.8.1 1.6.1 2.4.2v4c-.8-.1-1.6-.1-2.4-.2v-4zm-2-4.8h-.4v-4c.8.1 1.6.1 2.4.2v4c-.7 0-1.3-.1-2-.2zm-2-4.1v4c-.8-.1-1.6-.2-2.4-.4V28c.8 0 1.6.2 2.4.3zm15.7 4.3h-.5v-4c.8-.1 1.6-.1 2.4-.2v4c-.5.1-1 .1-1.5.1-.1 0-.3.1-.4.1zm3.5-.4v-4l2.4-.3v3.9c-.8.2-1.6.3-2.4.4zm4-4.6c.9-.2 1.7-.4 2.4-.6v3.9c-.7.2-1.5.4-2.4.6v-3.9zM24.3 24c-.6 0-1.2 0-1.8-.1h-.1v-4c.8 0 1.6.1 2.4.1H25.6v4h-1.2-.1zM5.6 12.5V8.7c.7.2 1.6.4 2.4.5v3.9c-.1 0-.2 0-.3-.1l-1.2-.3c-.3 0-.6-.1-.9-.2zm14.5-2.1h.7v4c-1.1 0-2.1 0-3.2-.1v-4c.8 0 1.6.1 2.4.1h.1zm3.1 0c.8 0 1.6 0 2.4-.1v4h-.4c-.5 0-1.1 0-1.6.1h-1.2v-4H23.2zm18.2.4l-.3.2c-.4.3-1.1.7-1.9 1V8.2c1-.3 1.8-.7 2.4-1.1v3.3c0 .1-.1.2-.2.4zm-10.2 3v-4l2.4-.3v3.9c-.8.2-1.6.3-2.4.4zm4-.7V9.2c.9-.2 1.7-.4 2.4-.6v3.9c-.7.2-1.5.4-2.4.6zM29.6 10v4c-.8.1-1.6.2-2.4.2v-4c.8 0 1.6-.1 2.4-.2zm-16 4v-4c.8.1 1.6.1 2.4.2v4c-.8-.1-1.6-.1-2.4-.2zM12 9.8v4c-.2 0-.3 0-.5-.1h-.3c-.5-.1-.9-.1-1.4-.2h-.3v-4c.9.1 1.7.3 2.5.3zm8.6 14h-.3c-.5 0-1-.1-1.5-.1h-.3-.1v-4c.8.1 1.6.1 2.4.2v4c-.1-.1-.1-.1-.2-.1zm-5.3-.6c-.3-.1-.6-.1-.9-.2v-3.9l2.4.3v4c-.5-.1-1-.1-1.5-.2.1 0 0 0 0 0zm-2.5-4.4v3.9c-.9-.2-1.7-.4-2.4-.6v-3.9c.7.3 1.5.5 2.4.6zm-4-1v3.8c-1.3-.5-2.1-1-2.3-1.4l-.1-.1v-3.4c.6.4 1.4.8 2.4 1.1zM28 20c.8 0 1.6 0 2.4-.1v4c-1 .1-2.1.1-3.2.1v-4H28zm10.3 3.1c-.4.1-.7.1-1.1.2-.2 0-.4.1-.6.1-.2 0-.4.1-.6.1v-4l2.4-.3-.1 3.9c.1-.1.1 0 0 0zm-5.4.6c-.3 0-.6 0-.9.1v-4c.8-.1 1.6-.1 2.4-.2v4c-.5 0-.9.1-1.5.1.1 0 0 0 0 0zm9.2-1.5c-.4.1-.8.2-1.3.3-.2 0-.4.1-.6.1H40v-3.9c.9-.2 1.7-.4 2.4-.6V22c-.1.2-.2.2-.3.2zm4.3-7.7c-.1.5-1.3 1.3-3.5 1.9-2.8.9-7.3 1.7-12.9 1.9h-7.2c-5.6-.3-10-1-12.9-1.9-2.2-.7-3.4-1.4-3.5-1.9h.2c.3.1.6.1 1 .2 1.6.3 3.4.6 5.2.8 1.3.1 2.6.3 4 .3 1 .1 2 .1 3 .1h3.1c5.8-.1 11.2-.8 14.9-1.9.2-.1.3-.1.5-.2.1 0 .2-.1.3-.1.3-.1.6-.2.8-.3 0 0 .1 0 .1-.1.2-.1.4-.2.7-.3.1 0 .1-.1.2-.1l.6-.3c.1 0 .2-.1.2-.1.1-.1.2-.1.3-.2.1 0 .1-.1.2-.1 3.7 1.1 4.6 1.9 4.7 2.3zM21.6 1.6c13.2 0 19.9 2.1 20 3.3-.1.5-1.3 1.3-3.5 1.9-2.8.9-7.3 1.7-12.9 1.9H18c-5.6-.2-10-1-12.9-1.9-2.2-.7-3.4-1.4-3.5-1.9.1-1.2 6.8-3.3 20-3.3zm-20 8.8V7.1c.6.4 1.4.8 2.4 1.1V12c-1.6-.6-2.4-1.2-2.4-1.6zm3.9 11.1c1.1 1.1 3.4 2 6.2 2.7h.2c.2 0 .4.1.6.1 2.6.6 5.7.9 9.1 1.1 1.1.1 2.2.1 3.3.1h3.2c1 0 2.1-.1 3.1-.1 3.4-.2 6.6-.6 9.2-1.2-.6.3-1.4.6-2.4.9-3 .9-7.8 1.8-13.8 2H18c-5.6-.3-10-1.1-12.9-1.9-2.2-.7-3.4-1.4-3.5-1.9.1-.4.9-1.1 3.9-1.8zm-3.9 7.3v-3.3c.6.4 1.4.8 2.4 1.1v3.8l-.5-.2c-1.2-.5-1.9-1-1.9-1.4zM4 37.6v-3.3c.6.4 1.4.8 2.4 1.1v3.8C4.8 38.6 4 38 4 37.6zm37.6 1.6v-3.8c.9-.3 1.8-.7 2.4-1.1v3.3c0 .4-.8 1-2.4 1.6zm2.4-7.1c-.1.5-1.3 1.3-3.5 1.9-2.8.9-7.3 1.7-12.9 1.9h-7.2c-5.6-.2-10-1-12.9-1.9-2.1-.7-3.3-1.3-3.5-1.9.2.1.5.2.7.2h.1c.2.1.4.1.7.2.1 0 .2.1.3.1.1 0 .3.1.4.1 2.9.7 6.6 1.3 10.6 1.5 1.2.1 2.5.1 3.8.1h2.3c1.2 0 2.3-.1 3.4-.1 1.4-.1 2.7-.2 4-.3 1.4-.2 2.8-.4 4-.6.3 0 .5-.1.8-.1h.2c2.4-.5 4.4-1.1 5.8-1.9.1 0 .1-.1.2-.1.1-.1.2-.1.3-.2.1-.1.2-.1.2-.1 1.7.5 2.1 1 2.2 1.2zm0-10.5v-3.8c1-.3 1.8-.7 2.4-1.1V20c0 .4-.8 1-2.4 1.6zm0 0"/>
</symbol><symbol id="icon-tour-times" viewBox="0 0 183.4 182.5">
    <path d="M176.2 137.3c-16.5-14.3-31.7-34.4-31.7-84.6-.1-29-23.7-52.7-52.8-52.7-29.1 0-52.8 23.7-52.8 52.7 0 50.3-15.2 70.4-31.7 84.6C2.6 141.3 0 147 0 153c0 3.3 2.7 6 6 6h56.9c2.8 13.3 14.6 23.4 28.8 23.4 14.1 0 26-10 28.8-23.4h56.9c3.3 0 6-2.7 6-6 0-6-2.6-11.7-7.2-15.7zm-84.5 33.2c-7.5 0-13.9-4.7-16.3-11.4H108c-2.4 6.6-8.8 11.4-16.3 11.4zm-77.3-23.4c.2-.2.4-.5.7-.7C40.3 124.7 51 96.7 51 52.7 50.9 30.3 69.2 12 91.7 12c22.5 0 40.7 18.3 40.7 40.7 0 43.9 10.7 71.9 35.9 93.7.2.2.5.4.7.7H14.4zm0 0"/>
</symbol><symbol id="icon-transportation" viewBox="0 0 384.8 249.2">
    <path d="M379.9 101l-36.1-21.5-37.6-74C304.5 2.1 301 0 297.3 0H10C4.5 0 0 4.5 0 10v179.1c0 2.7 1.1 5.2 2.9 7.1l11.7 11.7c1.9 1.9 4.4 2.9 7.1 2.9h21.4c4.6 21.9 24.1 38.5 47.4 38.5 23.3 0 42.8-16.5 47.4-38.5h113.5c4.6 21.9 24.1 38.5 47.4 38.5 23.3 0 42.8-16.5 47.4-38.5H363c2.7 0 5.2-1.1 7.1-2.9l11.7-11.7c1.9-1.9 2.9-4.4 2.9-7.1v-79.5c.1-3.5-1.8-6.8-4.8-8.6zM90.5 229.2c-15.7 0-28.5-12.8-28.5-28.5s12.8-28.5 28.5-28.5S119 185 119 200.7c-.1 15.8-12.8 28.5-28.5 28.5zm208.4 0c-15.7 0-28.5-12.8-28.5-28.5s12.8-28.5 28.5-28.5 28.5 12.8 28.5 28.5c-.1 15.8-12.8 28.5-28.5 28.5zm65.9-44.2l-5.8 5.8h-12.7c-4.6-21.9-24.1-38.5-47.4-38.5-23.3 0-42.8 16.5-47.4 38.5H137.9c-4.6-21.9-24.1-38.5-47.4-38.5-23.3 0-42.8 16.5-47.4 38.5H25.8L20 185V20h271.1l36.1 71.2c.9 1.7 2.2 3.1 3.8 4.1l33.8 20V185zm0 0"/>
    <path d="M171.2 36.8h-40.7c-5.5 0-10 4.5-10 10v48.7c0 2.7 1.1 5.2 2.9 7.1 1.9 1.9 4.4 2.9 7.1 2.9l40.7-.1c5.5 0 10-4.5 10-10V46.8c0-5.5-4.5-10-10-10zm-10 48.7h-20.7V56.8h20.7v28.7zm0 0"/>
    <path d="M96.6 36.8H55.9c-5.5 0-10 4.5-10 10v48.7c0 2.7 1.1 5.2 2.9 7.1 1.9 1.9 4.4 2.9 7.1 2.9l40.7-.1c5.5 0 10-4.5 10-10V46.8c0-5.5-4.4-10-10-10zm-10 48.7H65.9V56.8h20.7v28.7zm0 0"/>
    <path d="M277.5 42.3c-1.7-3.4-5.2-5.5-8.9-5.5h-61.1c-5.5 0-10 4.5-10 10v48.7c0 2.7 1.1 5.2 2.9 7.1 1.9 1.9 4.4 2.9 7.1 2.9l85.4-.1c3.5 0 6.7-1.8 8.5-4.7 1.8-2.9 2-6.6.4-9.7l-24.3-48.7zm-60.1 43.2V56.8h44.9l14.3 28.7h-59.2zm0 0"/>
</symbol></svg>